G75*
%MOIN*%
%OFA0B0*%
%FSLAX24Y24*%
%IPPOS*%
%LPD*%
%AMOC8*
5,1,8,0,0,1.08239X$1,22.5*
%
%ADD10C,0.0000*%
%ADD11C,0.0010*%
D10*
X000100Y000100D02*
X000100Y004221D01*
X006095Y004221D01*
X006095Y000100D01*
X000100Y000100D01*
D11*
X003210Y001225D02*
X003212Y001264D01*
X003218Y001302D01*
X003227Y001340D01*
X003241Y001376D01*
X003257Y001412D01*
X003278Y001445D01*
X003301Y001476D01*
X003328Y001504D01*
X003357Y001530D01*
X003388Y001553D01*
X003422Y001572D01*
X003458Y001588D01*
X003494Y001600D01*
X003532Y001609D01*
X003571Y001614D01*
X003610Y001615D01*
X003648Y001612D01*
X003687Y001605D01*
X003724Y001595D01*
X003760Y001580D01*
X003795Y001563D01*
X003828Y001542D01*
X003858Y001517D01*
X003886Y001490D01*
X003911Y001460D01*
X003933Y001428D01*
X003951Y001394D01*
X003966Y001358D01*
X003978Y001321D01*
X003986Y001283D01*
X003990Y001244D01*
X003990Y001206D01*
X003986Y001167D01*
X003978Y001129D01*
X003966Y001092D01*
X003951Y001056D01*
X003933Y001022D01*
X003911Y000990D01*
X003886Y000960D01*
X003858Y000933D01*
X003828Y000908D01*
X003795Y000887D01*
X003760Y000870D01*
X003724Y000855D01*
X003687Y000845D01*
X003648Y000838D01*
X003610Y000835D01*
X003571Y000836D01*
X003532Y000841D01*
X003494Y000850D01*
X003458Y000862D01*
X003422Y000878D01*
X003388Y000897D01*
X003357Y000920D01*
X003328Y000946D01*
X003301Y000974D01*
X003278Y001005D01*
X003257Y001038D01*
X003241Y001074D01*
X003227Y001110D01*
X003218Y001148D01*
X003212Y001186D01*
X003210Y001225D01*
X003200Y000825D02*
X004000Y001625D01*
X003210Y002225D02*
X003212Y002264D01*
X003218Y002302D01*
X003227Y002340D01*
X003241Y002376D01*
X003257Y002412D01*
X003278Y002445D01*
X003301Y002476D01*
X003328Y002504D01*
X003357Y002530D01*
X003388Y002553D01*
X003422Y002572D01*
X003458Y002588D01*
X003494Y002600D01*
X003532Y002609D01*
X003571Y002614D01*
X003610Y002615D01*
X003648Y002612D01*
X003687Y002605D01*
X003724Y002595D01*
X003760Y002580D01*
X003795Y002563D01*
X003828Y002542D01*
X003858Y002517D01*
X003886Y002490D01*
X003911Y002460D01*
X003933Y002428D01*
X003951Y002394D01*
X003966Y002358D01*
X003978Y002321D01*
X003986Y002283D01*
X003990Y002244D01*
X003990Y002206D01*
X003986Y002167D01*
X003978Y002129D01*
X003966Y002092D01*
X003951Y002056D01*
X003933Y002022D01*
X003911Y001990D01*
X003886Y001960D01*
X003858Y001933D01*
X003828Y001908D01*
X003795Y001887D01*
X003760Y001870D01*
X003724Y001855D01*
X003687Y001845D01*
X003648Y001838D01*
X003610Y001835D01*
X003571Y001836D01*
X003532Y001841D01*
X003494Y001850D01*
X003458Y001862D01*
X003422Y001878D01*
X003388Y001897D01*
X003357Y001920D01*
X003328Y001946D01*
X003301Y001974D01*
X003278Y002005D01*
X003257Y002038D01*
X003241Y002074D01*
X003227Y002110D01*
X003218Y002148D01*
X003212Y002186D01*
X003210Y002225D01*
X003200Y001825D02*
X004000Y002625D01*
X003210Y003225D02*
X003212Y003264D01*
X003218Y003302D01*
X003227Y003340D01*
X003241Y003376D01*
X003257Y003412D01*
X003278Y003445D01*
X003301Y003476D01*
X003328Y003504D01*
X003357Y003530D01*
X003388Y003553D01*
X003422Y003572D01*
X003458Y003588D01*
X003494Y003600D01*
X003532Y003609D01*
X003571Y003614D01*
X003610Y003615D01*
X003648Y003612D01*
X003687Y003605D01*
X003724Y003595D01*
X003760Y003580D01*
X003795Y003563D01*
X003828Y003542D01*
X003858Y003517D01*
X003886Y003490D01*
X003911Y003460D01*
X003933Y003428D01*
X003951Y003394D01*
X003966Y003358D01*
X003978Y003321D01*
X003986Y003283D01*
X003990Y003244D01*
X003990Y003206D01*
X003986Y003167D01*
X003978Y003129D01*
X003966Y003092D01*
X003951Y003056D01*
X003933Y003022D01*
X003911Y002990D01*
X003886Y002960D01*
X003858Y002933D01*
X003828Y002908D01*
X003795Y002887D01*
X003760Y002870D01*
X003724Y002855D01*
X003687Y002845D01*
X003648Y002838D01*
X003610Y002835D01*
X003571Y002836D01*
X003532Y002841D01*
X003494Y002850D01*
X003458Y002862D01*
X003422Y002878D01*
X003388Y002897D01*
X003357Y002920D01*
X003328Y002946D01*
X003301Y002974D01*
X003278Y003005D01*
X003257Y003038D01*
X003241Y003074D01*
X003227Y003110D01*
X003218Y003148D01*
X003212Y003186D01*
X003210Y003225D01*
X003200Y002825D02*
X004000Y003625D01*
M02*
