G75*
%MOIN*%
%OFA0B0*%
%FSLAX24Y24*%
%IPPOS*%
%LPD*%
%AMOC8*
5,1,8,0,0,1.08239X$1,22.5*
%
%ADD10C,0.0000*%
D10*
X000100Y000100D02*
X000100Y013596D01*
X012220Y013596D01*
X012220Y000100D01*
X000100Y000100D01*
X000475Y001100D02*
X000477Y001150D01*
X000483Y001199D01*
X000493Y001248D01*
X000506Y001295D01*
X000524Y001342D01*
X000545Y001387D01*
X000569Y001430D01*
X000597Y001471D01*
X000628Y001510D01*
X000662Y001546D01*
X000699Y001580D01*
X000739Y001610D01*
X000780Y001637D01*
X000824Y001661D01*
X000869Y001681D01*
X000916Y001697D01*
X000964Y001710D01*
X001013Y001719D01*
X001063Y001724D01*
X001112Y001725D01*
X001162Y001722D01*
X001211Y001715D01*
X001260Y001704D01*
X001307Y001690D01*
X001353Y001671D01*
X001398Y001649D01*
X001441Y001624D01*
X001481Y001595D01*
X001519Y001563D01*
X001555Y001529D01*
X001588Y001491D01*
X001617Y001451D01*
X001643Y001409D01*
X001666Y001365D01*
X001685Y001319D01*
X001701Y001272D01*
X001713Y001223D01*
X001721Y001174D01*
X001725Y001125D01*
X001725Y001075D01*
X001721Y001026D01*
X001713Y000977D01*
X001701Y000928D01*
X001685Y000881D01*
X001666Y000835D01*
X001643Y000791D01*
X001617Y000749D01*
X001588Y000709D01*
X001555Y000671D01*
X001519Y000637D01*
X001481Y000605D01*
X001441Y000576D01*
X001398Y000551D01*
X001353Y000529D01*
X001307Y000510D01*
X001260Y000496D01*
X001211Y000485D01*
X001162Y000478D01*
X001112Y000475D01*
X001063Y000476D01*
X001013Y000481D01*
X000964Y000490D01*
X000916Y000503D01*
X000869Y000519D01*
X000824Y000539D01*
X000780Y000563D01*
X000739Y000590D01*
X000699Y000620D01*
X000662Y000654D01*
X000628Y000690D01*
X000597Y000729D01*
X000569Y000770D01*
X000545Y000813D01*
X000524Y000858D01*
X000506Y000905D01*
X000493Y000952D01*
X000483Y001001D01*
X000477Y001050D01*
X000475Y001100D01*
X000475Y012600D02*
X000477Y012650D01*
X000483Y012699D01*
X000493Y012748D01*
X000506Y012795D01*
X000524Y012842D01*
X000545Y012887D01*
X000569Y012930D01*
X000597Y012971D01*
X000628Y013010D01*
X000662Y013046D01*
X000699Y013080D01*
X000739Y013110D01*
X000780Y013137D01*
X000824Y013161D01*
X000869Y013181D01*
X000916Y013197D01*
X000964Y013210D01*
X001013Y013219D01*
X001063Y013224D01*
X001112Y013225D01*
X001162Y013222D01*
X001211Y013215D01*
X001260Y013204D01*
X001307Y013190D01*
X001353Y013171D01*
X001398Y013149D01*
X001441Y013124D01*
X001481Y013095D01*
X001519Y013063D01*
X001555Y013029D01*
X001588Y012991D01*
X001617Y012951D01*
X001643Y012909D01*
X001666Y012865D01*
X001685Y012819D01*
X001701Y012772D01*
X001713Y012723D01*
X001721Y012674D01*
X001725Y012625D01*
X001725Y012575D01*
X001721Y012526D01*
X001713Y012477D01*
X001701Y012428D01*
X001685Y012381D01*
X001666Y012335D01*
X001643Y012291D01*
X001617Y012249D01*
X001588Y012209D01*
X001555Y012171D01*
X001519Y012137D01*
X001481Y012105D01*
X001441Y012076D01*
X001398Y012051D01*
X001353Y012029D01*
X001307Y012010D01*
X001260Y011996D01*
X001211Y011985D01*
X001162Y011978D01*
X001112Y011975D01*
X001063Y011976D01*
X001013Y011981D01*
X000964Y011990D01*
X000916Y012003D01*
X000869Y012019D01*
X000824Y012039D01*
X000780Y012063D01*
X000739Y012090D01*
X000699Y012120D01*
X000662Y012154D01*
X000628Y012190D01*
X000597Y012229D01*
X000569Y012270D01*
X000545Y012313D01*
X000524Y012358D01*
X000506Y012405D01*
X000493Y012452D01*
X000483Y012501D01*
X000477Y012550D01*
X000475Y012600D01*
X010600Y012600D02*
X010602Y012650D01*
X010608Y012699D01*
X010618Y012748D01*
X010631Y012795D01*
X010649Y012842D01*
X010670Y012887D01*
X010694Y012930D01*
X010722Y012971D01*
X010753Y013010D01*
X010787Y013046D01*
X010824Y013080D01*
X010864Y013110D01*
X010905Y013137D01*
X010949Y013161D01*
X010994Y013181D01*
X011041Y013197D01*
X011089Y013210D01*
X011138Y013219D01*
X011188Y013224D01*
X011237Y013225D01*
X011287Y013222D01*
X011336Y013215D01*
X011385Y013204D01*
X011432Y013190D01*
X011478Y013171D01*
X011523Y013149D01*
X011566Y013124D01*
X011606Y013095D01*
X011644Y013063D01*
X011680Y013029D01*
X011713Y012991D01*
X011742Y012951D01*
X011768Y012909D01*
X011791Y012865D01*
X011810Y012819D01*
X011826Y012772D01*
X011838Y012723D01*
X011846Y012674D01*
X011850Y012625D01*
X011850Y012575D01*
X011846Y012526D01*
X011838Y012477D01*
X011826Y012428D01*
X011810Y012381D01*
X011791Y012335D01*
X011768Y012291D01*
X011742Y012249D01*
X011713Y012209D01*
X011680Y012171D01*
X011644Y012137D01*
X011606Y012105D01*
X011566Y012076D01*
X011523Y012051D01*
X011478Y012029D01*
X011432Y012010D01*
X011385Y011996D01*
X011336Y011985D01*
X011287Y011978D01*
X011237Y011975D01*
X011188Y011976D01*
X011138Y011981D01*
X011089Y011990D01*
X011041Y012003D01*
X010994Y012019D01*
X010949Y012039D01*
X010905Y012063D01*
X010864Y012090D01*
X010824Y012120D01*
X010787Y012154D01*
X010753Y012190D01*
X010722Y012229D01*
X010694Y012270D01*
X010670Y012313D01*
X010649Y012358D01*
X010631Y012405D01*
X010618Y012452D01*
X010608Y012501D01*
X010602Y012550D01*
X010600Y012600D01*
X010600Y001100D02*
X010602Y001150D01*
X010608Y001199D01*
X010618Y001248D01*
X010631Y001295D01*
X010649Y001342D01*
X010670Y001387D01*
X010694Y001430D01*
X010722Y001471D01*
X010753Y001510D01*
X010787Y001546D01*
X010824Y001580D01*
X010864Y001610D01*
X010905Y001637D01*
X010949Y001661D01*
X010994Y001681D01*
X011041Y001697D01*
X011089Y001710D01*
X011138Y001719D01*
X011188Y001724D01*
X011237Y001725D01*
X011287Y001722D01*
X011336Y001715D01*
X011385Y001704D01*
X011432Y001690D01*
X011478Y001671D01*
X011523Y001649D01*
X011566Y001624D01*
X011606Y001595D01*
X011644Y001563D01*
X011680Y001529D01*
X011713Y001491D01*
X011742Y001451D01*
X011768Y001409D01*
X011791Y001365D01*
X011810Y001319D01*
X011826Y001272D01*
X011838Y001223D01*
X011846Y001174D01*
X011850Y001125D01*
X011850Y001075D01*
X011846Y001026D01*
X011838Y000977D01*
X011826Y000928D01*
X011810Y000881D01*
X011791Y000835D01*
X011768Y000791D01*
X011742Y000749D01*
X011713Y000709D01*
X011680Y000671D01*
X011644Y000637D01*
X011606Y000605D01*
X011566Y000576D01*
X011523Y000551D01*
X011478Y000529D01*
X011432Y000510D01*
X011385Y000496D01*
X011336Y000485D01*
X011287Y000478D01*
X011237Y000475D01*
X011188Y000476D01*
X011138Y000481D01*
X011089Y000490D01*
X011041Y000503D01*
X010994Y000519D01*
X010949Y000539D01*
X010905Y000563D01*
X010864Y000590D01*
X010824Y000620D01*
X010787Y000654D01*
X010753Y000690D01*
X010722Y000729D01*
X010694Y000770D01*
X010670Y000813D01*
X010649Y000858D01*
X010631Y000905D01*
X010618Y000952D01*
X010608Y001001D01*
X010602Y001050D01*
X010600Y001100D01*
M02*
