G75*
%MOIN*%
%OFA0B0*%
%FSLAX24Y24*%
%IPPOS*%
%LPD*%
%AMOC8*
5,1,8,0,0,1.08239X$1,22.5*
%
%ADD10C,0.1330*%
%ADD11C,0.0680*%
%ADD12R,0.0476X0.0476*%
D10*
X001100Y001100D03*
X011225Y001100D03*
X011225Y012600D03*
X001100Y012600D03*
D11*
X001925Y010975D02*
X002525Y010975D01*
X002525Y009975D02*
X001925Y009975D01*
X001775Y007475D02*
X001175Y007475D01*
X001175Y006475D02*
X001775Y006475D01*
X001775Y004475D02*
X001175Y004475D01*
X001175Y003475D02*
X001775Y003475D01*
X003475Y002900D02*
X003475Y002300D01*
X004475Y002300D02*
X004475Y002900D01*
X004225Y004425D02*
X004225Y005025D01*
X005225Y005025D02*
X005225Y004425D01*
X006350Y002900D02*
X006350Y002300D01*
X007350Y002300D02*
X007350Y002900D01*
X006850Y004425D02*
X006850Y005025D01*
X007850Y005025D02*
X007850Y004425D01*
X009475Y004550D02*
X009475Y005150D01*
X010475Y005150D02*
X010475Y004550D01*
X010475Y003025D02*
X010475Y002425D01*
X009475Y002425D02*
X009475Y003025D01*
X007725Y006425D02*
X007725Y007025D01*
X006725Y007025D02*
X006725Y006425D01*
X004850Y006425D02*
X004850Y007025D01*
X003850Y007025D02*
X003850Y006425D01*
X009475Y006800D02*
X009475Y007400D01*
X010475Y007400D02*
X010475Y006800D01*
X010475Y008800D02*
X010475Y009400D01*
X009475Y009400D02*
X009475Y008800D01*
X009475Y010925D02*
X009475Y011525D01*
X010475Y011525D02*
X010475Y010925D01*
D12*
X007475Y009350D03*
M02*
