G75*
%MOIN*%
%OFA0B0*%
%FSLAX24Y24*%
%IPPOS*%
%LPD*%
%AMOC8*
5,1,8,0,0,1.08239X$1,22.5*
%
%ADD10C,0.0600*%
%ADD11C,0.0160*%
%ADD12R,0.0396X0.0396*%
%ADD13C,0.0560*%
D10*
X001175Y003475D02*
X001775Y003475D01*
X001775Y004475D02*
X001175Y004475D01*
X001175Y006475D02*
X001775Y006475D01*
X001775Y007475D02*
X001175Y007475D01*
X001925Y009975D02*
X002525Y009975D01*
X002525Y010975D02*
X001925Y010975D01*
X003850Y007025D02*
X003850Y006425D01*
X004850Y006425D02*
X004850Y007025D01*
X006725Y007025D02*
X006725Y006425D01*
X007725Y006425D02*
X007725Y007025D01*
X009475Y006800D02*
X009475Y007400D01*
X010475Y007400D02*
X010475Y006800D01*
X010475Y005150D02*
X010475Y004550D01*
X009475Y004550D02*
X009475Y005150D01*
X007850Y005025D02*
X007850Y004425D01*
X006850Y004425D02*
X006850Y005025D01*
X005225Y005025D02*
X005225Y004425D01*
X004225Y004425D02*
X004225Y005025D01*
X004475Y002900D02*
X004475Y002300D01*
X003475Y002300D02*
X003475Y002900D01*
X006350Y002900D02*
X006350Y002300D01*
X007350Y002300D02*
X007350Y002900D01*
X009475Y003025D02*
X009475Y002425D01*
X010475Y002425D02*
X010475Y003025D01*
X010475Y008800D02*
X010475Y009400D01*
X009475Y009400D02*
X009475Y008800D01*
X009475Y010925D02*
X009475Y011525D01*
X010475Y011525D02*
X010475Y010925D01*
D11*
X001778Y001984D02*
X001527Y002130D01*
X001245Y002205D01*
X000955Y002205D01*
X000673Y002130D01*
X000580Y002076D01*
X000580Y007150D01*
X000600Y008350D01*
X003100Y008350D01*
X003100Y007725D01*
X008225Y007725D01*
X008225Y011975D01*
X009307Y011975D01*
X009291Y011970D01*
X009223Y011936D01*
X009162Y011891D01*
X009109Y011838D01*
X009064Y011777D01*
X009030Y011709D01*
X009007Y011637D01*
X008995Y011563D01*
X008995Y011245D01*
X009455Y011245D01*
X009455Y011205D01*
X008995Y011205D01*
X008995Y010887D01*
X009007Y010813D01*
X009030Y010741D01*
X009064Y010673D01*
X009109Y010612D01*
X009162Y010559D01*
X009223Y010514D01*
X009291Y010480D01*
X009363Y010457D01*
X009437Y010445D01*
X009455Y010445D01*
X009455Y011205D01*
X009495Y011205D01*
X009495Y011245D01*
X009955Y011245D01*
X009955Y011563D01*
X009943Y011637D01*
X009920Y011709D01*
X009886Y011777D01*
X009841Y011838D01*
X009788Y011891D01*
X009727Y011936D01*
X009659Y011970D01*
X009643Y011975D01*
X010310Y011975D01*
X010319Y011958D01*
X010214Y011915D01*
X010085Y011786D01*
X010015Y011616D01*
X010015Y010833D01*
X010085Y010664D01*
X010214Y010535D01*
X010383Y010465D01*
X010566Y010465D01*
X010736Y010535D01*
X010865Y010664D01*
X010935Y010833D01*
X010935Y011534D01*
X011080Y011495D01*
X011370Y011495D01*
X011600Y011557D01*
X011600Y002143D01*
X011370Y002205D01*
X011080Y002205D01*
X010842Y002141D01*
X010865Y002164D01*
X010935Y002333D01*
X010935Y003116D01*
X010865Y003286D01*
X010736Y003415D01*
X010566Y003485D01*
X010383Y003485D01*
X010214Y003415D01*
X010085Y003286D01*
X010015Y003116D01*
X010015Y002333D01*
X010085Y002164D01*
X010214Y002035D01*
X010383Y001965D01*
X010527Y001965D01*
X010341Y001778D01*
X010195Y001527D01*
X010120Y001245D01*
X010120Y000955D01*
X010148Y000850D01*
X002177Y000850D01*
X002205Y000955D01*
X002205Y001245D01*
X002130Y001527D01*
X001984Y001778D01*
X001778Y001984D01*
X001748Y002002D02*
X003098Y002002D01*
X003109Y001987D02*
X003162Y001934D01*
X003223Y001889D01*
X003291Y001855D01*
X003363Y001832D01*
X003437Y001820D01*
X003455Y001820D01*
X003455Y002580D01*
X002995Y002580D01*
X002995Y002262D01*
X003007Y002188D01*
X003030Y002116D01*
X003064Y002048D01*
X003109Y001987D01*
X003016Y002161D02*
X001412Y002161D01*
X001919Y001844D02*
X003327Y001844D01*
X003455Y001844D02*
X003495Y001844D01*
X003495Y001820D02*
X003513Y001820D01*
X003587Y001832D01*
X003659Y001855D01*
X003727Y001889D01*
X003788Y001934D01*
X003841Y001987D01*
X003886Y002048D01*
X003920Y002116D01*
X003943Y002188D01*
X003955Y002262D01*
X003955Y002580D01*
X003495Y002580D01*
X003495Y002620D01*
X003455Y002620D01*
X003455Y003380D01*
X003437Y003380D01*
X003363Y003368D01*
X003291Y003345D01*
X003223Y003311D01*
X003162Y003266D01*
X003109Y003213D01*
X003064Y003152D01*
X003030Y003084D01*
X003007Y003012D01*
X002995Y002938D01*
X002995Y002620D01*
X003455Y002620D01*
X003455Y002580D01*
X003495Y002580D01*
X003495Y001820D01*
X003623Y001844D02*
X004375Y001844D01*
X004383Y001840D02*
X004566Y001840D01*
X004736Y001910D01*
X004865Y002039D01*
X004935Y002208D01*
X004935Y002991D01*
X004865Y003161D01*
X004736Y003290D01*
X004566Y003360D01*
X004383Y003360D01*
X004214Y003290D01*
X004085Y003161D01*
X004015Y002991D01*
X004015Y002208D01*
X004085Y002039D01*
X004214Y001910D01*
X004383Y001840D01*
X004575Y001844D02*
X006202Y001844D01*
X006238Y001832D02*
X006312Y001820D01*
X006330Y001820D01*
X006330Y002580D01*
X005870Y002580D01*
X005870Y002262D01*
X005882Y002188D01*
X005905Y002116D01*
X005939Y002048D01*
X005984Y001987D01*
X006037Y001934D01*
X006098Y001889D01*
X006166Y001855D01*
X006238Y001832D01*
X006330Y001844D02*
X006370Y001844D01*
X006370Y001820D02*
X006388Y001820D01*
X006462Y001832D01*
X006534Y001855D01*
X006602Y001889D01*
X006663Y001934D01*
X006716Y001987D01*
X006761Y002048D01*
X006795Y002116D01*
X006818Y002188D01*
X006830Y002262D01*
X006830Y002580D01*
X006370Y002580D01*
X006370Y002620D01*
X006330Y002620D01*
X006330Y003380D01*
X006312Y003380D01*
X006238Y003368D01*
X006166Y003345D01*
X006098Y003311D01*
X006037Y003266D01*
X005984Y003213D01*
X005939Y003152D01*
X005905Y003084D01*
X005882Y003012D01*
X005870Y002938D01*
X005870Y002620D01*
X006330Y002620D01*
X006330Y002580D01*
X006370Y002580D01*
X006370Y001820D01*
X006498Y001844D02*
X007250Y001844D01*
X007258Y001840D02*
X007441Y001840D01*
X007611Y001910D01*
X007740Y002039D01*
X007810Y002208D01*
X007810Y002991D01*
X007740Y003161D01*
X007611Y003290D01*
X007441Y003360D01*
X007258Y003360D01*
X007089Y003290D01*
X006960Y003161D01*
X006890Y002991D01*
X006890Y002208D01*
X006960Y002039D01*
X007089Y001910D01*
X007258Y001840D01*
X007450Y001844D02*
X010406Y001844D01*
X010294Y002002D02*
X009702Y002002D01*
X009727Y002014D02*
X009788Y002059D01*
X009841Y002112D01*
X009886Y002173D01*
X009920Y002241D01*
X009943Y002313D01*
X009955Y002387D01*
X009955Y002705D01*
X009495Y002705D01*
X009495Y002745D01*
X009455Y002745D01*
X009455Y003505D01*
X009437Y003505D01*
X009363Y003493D01*
X009291Y003470D01*
X009223Y003436D01*
X009162Y003391D01*
X009109Y003338D01*
X009064Y003277D01*
X009030Y003209D01*
X009007Y003137D01*
X008995Y003063D01*
X008995Y002745D01*
X009455Y002745D01*
X009455Y002705D01*
X008995Y002705D01*
X008995Y002387D01*
X009007Y002313D01*
X009030Y002241D01*
X009064Y002173D01*
X009109Y002112D01*
X009162Y002059D01*
X009223Y002014D01*
X009291Y001980D01*
X009363Y001957D01*
X009437Y001945D01*
X009455Y001945D01*
X009455Y002705D01*
X009495Y002705D01*
X009495Y001945D01*
X009513Y001945D01*
X009587Y001957D01*
X009659Y001980D01*
X009727Y002014D01*
X009495Y002002D02*
X009455Y002002D01*
X009455Y002161D02*
X009495Y002161D01*
X009495Y002319D02*
X009455Y002319D01*
X009455Y002478D02*
X009495Y002478D01*
X009495Y002636D02*
X009455Y002636D01*
X009495Y002745D02*
X009955Y002745D01*
X009955Y003063D01*
X009943Y003137D01*
X009920Y003209D01*
X009886Y003277D01*
X009841Y003338D01*
X009788Y003391D01*
X009727Y003436D01*
X009659Y003470D01*
X009587Y003493D01*
X009513Y003505D01*
X009495Y003505D01*
X009495Y002745D01*
X009495Y002795D02*
X009455Y002795D01*
X009455Y002953D02*
X009495Y002953D01*
X009495Y003112D02*
X009455Y003112D01*
X009455Y003270D02*
X009495Y003270D01*
X009495Y003429D02*
X009455Y003429D01*
X009214Y003429D02*
X002254Y003429D01*
X002255Y003437D02*
X002243Y003363D01*
X002220Y003291D01*
X002186Y003223D01*
X002141Y003162D01*
X002088Y003109D01*
X002027Y003064D01*
X001959Y003030D01*
X001887Y003007D01*
X001813Y002995D01*
X001495Y002995D01*
X001495Y003455D01*
X001495Y003495D01*
X001455Y003495D01*
X001455Y003955D01*
X001137Y003955D01*
X001063Y003943D01*
X000991Y003920D01*
X000923Y003886D01*
X000862Y003841D01*
X000809Y003788D01*
X000764Y003727D01*
X000730Y003659D01*
X000707Y003587D01*
X000580Y003587D01*
X000707Y003587D02*
X000695Y003513D01*
X000695Y003495D01*
X001455Y003495D01*
X001455Y003455D01*
X001495Y003455D01*
X002255Y003455D01*
X002255Y003437D01*
X002255Y003495D02*
X002255Y003513D01*
X002243Y003587D01*
X011600Y003587D01*
X011600Y003429D02*
X010703Y003429D01*
X010871Y003270D02*
X011600Y003270D01*
X011600Y003112D02*
X010935Y003112D01*
X010935Y002953D02*
X011600Y002953D01*
X011600Y002795D02*
X010935Y002795D01*
X010935Y002636D02*
X011600Y002636D01*
X011600Y002478D02*
X010935Y002478D01*
X010929Y002319D02*
X011600Y002319D01*
X011600Y002161D02*
X011537Y002161D01*
X010913Y002161D02*
X010861Y002161D01*
X010287Y001685D02*
X002038Y001685D01*
X002130Y001527D02*
X010195Y001527D01*
X010153Y001368D02*
X002172Y001368D01*
X002205Y001210D02*
X010120Y001210D01*
X010120Y001051D02*
X002205Y001051D01*
X002188Y000893D02*
X010137Y000893D01*
X009248Y002002D02*
X007703Y002002D01*
X007790Y002161D02*
X009074Y002161D01*
X009006Y002319D02*
X007810Y002319D01*
X007810Y002478D02*
X008995Y002478D01*
X008995Y002636D02*
X007810Y002636D01*
X007810Y002795D02*
X008995Y002795D01*
X008995Y002953D02*
X007810Y002953D01*
X007760Y003112D02*
X009003Y003112D01*
X009061Y003270D02*
X007631Y003270D01*
X007069Y003270D02*
X006657Y003270D01*
X006663Y003266D02*
X006602Y003311D01*
X006534Y003345D01*
X006462Y003368D01*
X006388Y003380D01*
X006370Y003380D01*
X006370Y002620D01*
X006830Y002620D01*
X006830Y002938D01*
X006818Y003012D01*
X006795Y003084D01*
X006761Y003152D01*
X006716Y003213D01*
X006663Y003266D01*
X006781Y003112D02*
X006940Y003112D01*
X006890Y002953D02*
X006828Y002953D01*
X006830Y002795D02*
X006890Y002795D01*
X006890Y002636D02*
X006830Y002636D01*
X006830Y002478D02*
X006890Y002478D01*
X006890Y002319D02*
X006830Y002319D01*
X006809Y002161D02*
X006910Y002161D01*
X006997Y002002D02*
X006727Y002002D01*
X006370Y002002D02*
X006330Y002002D01*
X006330Y002161D02*
X006370Y002161D01*
X006370Y002319D02*
X006330Y002319D01*
X006330Y002478D02*
X006370Y002478D01*
X006370Y002636D02*
X006330Y002636D01*
X006330Y002795D02*
X006370Y002795D01*
X006370Y002953D02*
X006330Y002953D01*
X006330Y003112D02*
X006370Y003112D01*
X006370Y003270D02*
X006330Y003270D01*
X006043Y003270D02*
X004756Y003270D01*
X004885Y003112D02*
X005919Y003112D01*
X005872Y002953D02*
X004935Y002953D01*
X004935Y002795D02*
X005870Y002795D01*
X005870Y002636D02*
X004935Y002636D01*
X004935Y002478D02*
X005870Y002478D01*
X005870Y002319D02*
X004935Y002319D01*
X004915Y002161D02*
X005891Y002161D01*
X005973Y002002D02*
X004828Y002002D01*
X004122Y002002D02*
X003852Y002002D01*
X003934Y002161D02*
X004035Y002161D01*
X004015Y002319D02*
X003955Y002319D01*
X003955Y002478D02*
X004015Y002478D01*
X003955Y002620D02*
X003955Y002938D01*
X003943Y003012D01*
X003920Y003084D01*
X003886Y003152D01*
X003841Y003213D01*
X003788Y003266D01*
X003727Y003311D01*
X003659Y003345D01*
X003587Y003368D01*
X003513Y003380D01*
X003495Y003380D01*
X003495Y002620D01*
X003955Y002620D01*
X003955Y002636D02*
X004015Y002636D01*
X004015Y002795D02*
X003955Y002795D01*
X003953Y002953D02*
X004015Y002953D01*
X004065Y003112D02*
X003906Y003112D01*
X003782Y003270D02*
X004194Y003270D01*
X004187Y003945D02*
X004113Y003957D01*
X004041Y003980D01*
X003973Y004014D01*
X003912Y004059D01*
X003859Y004112D01*
X003814Y004173D01*
X003780Y004241D01*
X003757Y004313D01*
X003745Y004387D01*
X003745Y004705D01*
X004205Y004705D01*
X004205Y004745D01*
X004205Y005505D01*
X004187Y005505D01*
X004113Y005493D01*
X004041Y005470D01*
X003973Y005436D01*
X003912Y005391D01*
X003859Y005338D01*
X003814Y005277D01*
X003780Y005209D01*
X003757Y005137D01*
X003745Y005063D01*
X003745Y004745D01*
X004205Y004745D01*
X004245Y004745D01*
X004245Y005505D01*
X004263Y005505D01*
X004337Y005493D01*
X004409Y005470D01*
X004477Y005436D01*
X004538Y005391D01*
X004591Y005338D01*
X004636Y005277D01*
X004670Y005209D01*
X004693Y005137D01*
X004705Y005063D01*
X004705Y004745D01*
X004245Y004745D01*
X004245Y004705D01*
X004705Y004705D01*
X004705Y004387D01*
X004693Y004313D01*
X004670Y004241D01*
X004636Y004173D01*
X004591Y004112D01*
X004538Y004059D01*
X004477Y004014D01*
X004409Y003980D01*
X004337Y003957D01*
X004263Y003945D01*
X004245Y003945D01*
X004245Y004705D01*
X004205Y004705D01*
X004205Y003945D01*
X004187Y003945D01*
X004205Y004063D02*
X004245Y004063D01*
X004245Y004221D02*
X004205Y004221D01*
X004205Y004380D02*
X004245Y004380D01*
X004245Y004538D02*
X004205Y004538D01*
X004205Y004697D02*
X004245Y004697D01*
X004245Y004855D02*
X004205Y004855D01*
X004205Y005014D02*
X004245Y005014D01*
X004245Y005172D02*
X004205Y005172D01*
X004205Y005331D02*
X004245Y005331D01*
X004245Y005489D02*
X004205Y005489D01*
X004100Y005489D02*
X000580Y005489D01*
X000580Y005648D02*
X011600Y005648D01*
X011600Y005806D02*
X000580Y005806D01*
X000580Y005965D02*
X003714Y005965D01*
X003738Y005957D02*
X003812Y005945D01*
X003830Y005945D01*
X003830Y006705D01*
X003370Y006705D01*
X003370Y006387D01*
X003382Y006313D01*
X003405Y006241D01*
X003439Y006173D01*
X003484Y006112D01*
X003537Y006059D01*
X003598Y006014D01*
X003666Y005980D01*
X003738Y005957D01*
X003830Y005965D02*
X003870Y005965D01*
X003870Y005945D02*
X003888Y005945D01*
X003962Y005957D01*
X004034Y005980D01*
X004102Y006014D01*
X004163Y006059D01*
X004216Y006112D01*
X004261Y006173D01*
X004295Y006241D01*
X004318Y006313D01*
X004330Y006387D01*
X004330Y006705D01*
X003870Y006705D01*
X003870Y006745D01*
X003830Y006745D01*
X003830Y007505D01*
X003812Y007505D01*
X003738Y007493D01*
X003666Y007470D01*
X003598Y007436D01*
X003537Y007391D01*
X002248Y007391D01*
X002243Y007363D02*
X002255Y007437D01*
X002255Y007455D01*
X001495Y007455D01*
X001495Y007495D01*
X001455Y007495D01*
X001455Y007955D01*
X001137Y007955D01*
X001063Y007943D01*
X000991Y007920D01*
X000923Y007886D01*
X000862Y007841D01*
X000809Y007788D01*
X000764Y007727D01*
X000730Y007659D01*
X000707Y007587D01*
X000695Y007513D01*
X000695Y007495D01*
X001455Y007495D01*
X001455Y007455D01*
X001495Y007455D01*
X001495Y006995D01*
X001813Y006995D01*
X001887Y007007D01*
X001959Y007030D01*
X002027Y007064D01*
X002088Y007109D01*
X002141Y007162D01*
X002186Y007223D01*
X002220Y007291D01*
X002243Y007363D01*
X002255Y007495D02*
X002255Y007513D01*
X002243Y007587D01*
X002220Y007659D01*
X002186Y007727D01*
X002141Y007788D01*
X002088Y007841D01*
X002027Y007886D01*
X001959Y007920D01*
X001887Y007943D01*
X001813Y007955D01*
X001495Y007955D01*
X001495Y007495D01*
X002255Y007495D01*
X002249Y007550D02*
X009019Y007550D01*
X009030Y007584D02*
X009007Y007512D01*
X008995Y007438D01*
X008995Y007120D01*
X009455Y007120D01*
X009455Y007880D01*
X009437Y007880D01*
X009363Y007868D01*
X009291Y007845D01*
X009223Y007811D01*
X009162Y007766D01*
X009109Y007713D01*
X009064Y007652D01*
X009030Y007584D01*
X009105Y007708D02*
X002195Y007708D01*
X002053Y007867D02*
X003100Y007867D01*
X003100Y008025D02*
X000595Y008025D01*
X000592Y007867D02*
X000897Y007867D01*
X000755Y007708D02*
X000589Y007708D01*
X000587Y007550D02*
X000701Y007550D01*
X000695Y007455D02*
X000695Y007437D01*
X000707Y007363D01*
X000730Y007291D01*
X000764Y007223D01*
X000809Y007162D01*
X000862Y007109D01*
X000923Y007064D01*
X000991Y007030D01*
X001063Y007007D01*
X001137Y006995D01*
X001455Y006995D01*
X001455Y007455D01*
X000695Y007455D01*
X000702Y007391D02*
X000584Y007391D01*
X000581Y007233D02*
X000760Y007233D01*
X000910Y007074D02*
X000580Y007074D01*
X000580Y006916D02*
X001036Y006916D01*
X001083Y006935D02*
X000914Y006865D01*
X000785Y006736D01*
X000715Y006566D01*
X000715Y006383D01*
X000785Y006214D01*
X000914Y006085D01*
X001083Y006015D01*
X001866Y006015D01*
X002036Y006085D01*
X002165Y006214D01*
X002235Y006383D01*
X002235Y006566D01*
X002165Y006736D01*
X002036Y006865D01*
X001866Y006935D01*
X001083Y006935D01*
X000806Y006757D02*
X000580Y006757D01*
X000580Y006599D02*
X000728Y006599D01*
X000715Y006440D02*
X000580Y006440D01*
X000580Y006282D02*
X000757Y006282D01*
X000876Y006123D02*
X000580Y006123D01*
X000580Y005331D02*
X003854Y005331D01*
X003768Y005172D02*
X000580Y005172D01*
X000580Y005014D02*
X003745Y005014D01*
X003745Y004855D02*
X002046Y004855D01*
X002036Y004865D02*
X001866Y004935D01*
X001083Y004935D01*
X000914Y004865D01*
X000785Y004736D01*
X000715Y004566D01*
X000715Y004383D01*
X000785Y004214D01*
X000914Y004085D01*
X001083Y004015D01*
X001866Y004015D01*
X002036Y004085D01*
X002165Y004214D01*
X002235Y004383D01*
X002235Y004566D01*
X002165Y004736D01*
X002036Y004865D01*
X002181Y004697D02*
X003745Y004697D01*
X003745Y004538D02*
X002235Y004538D01*
X002233Y004380D02*
X003746Y004380D01*
X003790Y004221D02*
X002168Y004221D01*
X001981Y004063D02*
X003909Y004063D01*
X004541Y004063D02*
X004937Y004063D01*
X004964Y004035D02*
X005133Y003965D01*
X005316Y003965D01*
X005486Y004035D01*
X005615Y004164D01*
X005685Y004333D01*
X005685Y005116D01*
X005615Y005286D01*
X005486Y005415D01*
X005316Y005485D01*
X005133Y005485D01*
X004964Y005415D01*
X004835Y005286D01*
X004765Y005116D01*
X004765Y004333D01*
X004835Y004164D01*
X004964Y004035D01*
X004812Y004221D02*
X004660Y004221D01*
X004704Y004380D02*
X004765Y004380D01*
X004765Y004538D02*
X004705Y004538D01*
X004705Y004697D02*
X004765Y004697D01*
X004765Y004855D02*
X004705Y004855D01*
X004705Y005014D02*
X004765Y005014D01*
X004788Y005172D02*
X004682Y005172D01*
X004596Y005331D02*
X004880Y005331D01*
X004350Y005489D02*
X006725Y005489D01*
X006738Y005493D02*
X006666Y005470D01*
X006598Y005436D01*
X006537Y005391D01*
X006484Y005338D01*
X006439Y005277D01*
X006405Y005209D01*
X006382Y005137D01*
X006370Y005063D01*
X006370Y004745D01*
X006830Y004745D01*
X006830Y005505D01*
X006812Y005505D01*
X006738Y005493D01*
X006830Y005489D02*
X006870Y005489D01*
X006870Y005505D02*
X006870Y004745D01*
X006830Y004745D01*
X006830Y004705D01*
X006370Y004705D01*
X006370Y004387D01*
X006382Y004313D01*
X006405Y004241D01*
X006439Y004173D01*
X006484Y004112D01*
X006537Y004059D01*
X006598Y004014D01*
X006666Y003980D01*
X006738Y003957D01*
X006812Y003945D01*
X006830Y003945D01*
X006830Y004705D01*
X006870Y004705D01*
X006870Y004745D01*
X007330Y004745D01*
X007330Y005063D01*
X007318Y005137D01*
X007295Y005209D01*
X007261Y005277D01*
X007216Y005338D01*
X007163Y005391D01*
X007102Y005436D01*
X007034Y005470D01*
X006962Y005493D01*
X006888Y005505D01*
X006870Y005505D01*
X006975Y005489D02*
X009135Y005489D01*
X009109Y005463D02*
X009162Y005516D01*
X009223Y005561D01*
X009291Y005595D01*
X009363Y005618D01*
X009437Y005630D01*
X009455Y005630D01*
X009455Y004870D01*
X009495Y004870D01*
X009495Y005630D01*
X009513Y005630D01*
X009587Y005618D01*
X009659Y005595D01*
X009727Y005561D01*
X009788Y005516D01*
X009841Y005463D01*
X009886Y005402D01*
X009920Y005334D01*
X009943Y005262D01*
X009955Y005188D01*
X009955Y004870D01*
X009495Y004870D01*
X009495Y004830D01*
X009955Y004830D01*
X009955Y004512D01*
X009943Y004438D01*
X009920Y004366D01*
X009886Y004298D01*
X009841Y004237D01*
X009788Y004184D01*
X009727Y004139D01*
X009659Y004105D01*
X009587Y004082D01*
X009513Y004070D01*
X009495Y004070D01*
X009495Y004830D01*
X009455Y004830D01*
X008995Y004830D01*
X008995Y004512D01*
X009007Y004438D01*
X009030Y004366D01*
X009064Y004298D01*
X009109Y004237D01*
X009162Y004184D01*
X009223Y004139D01*
X009291Y004105D01*
X009363Y004082D01*
X009437Y004070D01*
X009455Y004070D01*
X009455Y004830D01*
X009455Y004870D01*
X008995Y004870D01*
X008995Y005188D01*
X009007Y005262D01*
X009030Y005334D01*
X009064Y005402D01*
X009109Y005463D01*
X009029Y005331D02*
X008195Y005331D01*
X008240Y005286D02*
X008111Y005415D01*
X007941Y005485D01*
X007758Y005485D01*
X007589Y005415D01*
X007460Y005286D01*
X007390Y005116D01*
X007390Y004333D01*
X007460Y004164D01*
X007589Y004035D01*
X007758Y003965D01*
X007941Y003965D01*
X008111Y004035D01*
X008240Y004164D01*
X008310Y004333D01*
X008310Y005116D01*
X008240Y005286D01*
X008287Y005172D02*
X008995Y005172D01*
X008995Y005014D02*
X008310Y005014D01*
X008310Y004855D02*
X009455Y004855D01*
X009495Y004855D02*
X010015Y004855D01*
X010015Y004697D02*
X009955Y004697D01*
X009955Y004538D02*
X010015Y004538D01*
X010015Y004458D02*
X010085Y004289D01*
X010214Y004160D01*
X010383Y004090D01*
X010566Y004090D01*
X010736Y004160D01*
X010865Y004289D01*
X010935Y004458D01*
X010935Y005241D01*
X010865Y005411D01*
X010736Y005540D01*
X010566Y005610D01*
X010383Y005610D01*
X010214Y005540D01*
X010085Y005411D01*
X010015Y005241D01*
X010015Y004458D01*
X010048Y004380D02*
X009924Y004380D01*
X009825Y004221D02*
X010153Y004221D01*
X010797Y004221D02*
X011600Y004221D01*
X011600Y004063D02*
X008138Y004063D01*
X008263Y004221D02*
X009125Y004221D01*
X009026Y004380D02*
X008310Y004380D01*
X008310Y004538D02*
X008995Y004538D01*
X008995Y004697D02*
X008310Y004697D01*
X007562Y004063D02*
X007166Y004063D01*
X007163Y004059D02*
X007216Y004112D01*
X007261Y004173D01*
X007295Y004241D01*
X007318Y004313D01*
X007330Y004387D01*
X007330Y004705D01*
X006870Y004705D01*
X006870Y003945D01*
X006888Y003945D01*
X006962Y003957D01*
X007034Y003980D01*
X007102Y004014D01*
X007163Y004059D01*
X007285Y004221D02*
X007437Y004221D01*
X007390Y004380D02*
X007329Y004380D01*
X007330Y004538D02*
X007390Y004538D01*
X007390Y004697D02*
X007330Y004697D01*
X007330Y004855D02*
X007390Y004855D01*
X007390Y005014D02*
X007330Y005014D01*
X007307Y005172D02*
X007413Y005172D01*
X007505Y005331D02*
X007221Y005331D01*
X006870Y005331D02*
X006830Y005331D01*
X006830Y005172D02*
X006870Y005172D01*
X006870Y005014D02*
X006830Y005014D01*
X006830Y004855D02*
X006870Y004855D01*
X006870Y004697D02*
X006830Y004697D01*
X006830Y004538D02*
X006870Y004538D01*
X006870Y004380D02*
X006830Y004380D01*
X006830Y004221D02*
X006870Y004221D01*
X006870Y004063D02*
X006830Y004063D01*
X006534Y004063D02*
X005513Y004063D01*
X005638Y004221D02*
X006415Y004221D01*
X006371Y004380D02*
X005685Y004380D01*
X005685Y004538D02*
X006370Y004538D01*
X006370Y004697D02*
X005685Y004697D01*
X005685Y004855D02*
X006370Y004855D01*
X006370Y005014D02*
X005685Y005014D01*
X005662Y005172D02*
X006393Y005172D01*
X006479Y005331D02*
X005570Y005331D01*
X005111Y006035D02*
X004941Y005965D01*
X004758Y005965D01*
X004589Y006035D01*
X004460Y006164D01*
X004390Y006333D01*
X004390Y007116D01*
X004460Y007286D01*
X004589Y007415D01*
X004758Y007485D01*
X004941Y007485D01*
X005111Y007415D01*
X005240Y007286D01*
X005310Y007116D01*
X005310Y006333D01*
X005240Y006164D01*
X005111Y006035D01*
X005199Y006123D02*
X006351Y006123D01*
X006359Y006112D02*
X006412Y006059D01*
X006473Y006014D01*
X006541Y005980D01*
X006613Y005957D01*
X006687Y005945D01*
X006705Y005945D01*
X006705Y006705D01*
X006245Y006705D01*
X006245Y006387D01*
X006257Y006313D01*
X006280Y006241D01*
X006314Y006173D01*
X006359Y006112D01*
X006267Y006282D02*
X005288Y006282D01*
X005310Y006440D02*
X006245Y006440D01*
X006245Y006599D02*
X005310Y006599D01*
X005310Y006757D02*
X006245Y006757D01*
X006245Y006745D02*
X006705Y006745D01*
X006705Y007505D01*
X006687Y007505D01*
X006613Y007493D01*
X006541Y007470D01*
X006473Y007436D01*
X006412Y007391D01*
X005135Y007391D01*
X005262Y007233D02*
X006292Y007233D01*
X006280Y007209D02*
X006314Y007277D01*
X006359Y007338D01*
X006412Y007391D01*
X006280Y007209D02*
X006257Y007137D01*
X006245Y007063D01*
X006245Y006745D01*
X006245Y006916D02*
X005310Y006916D01*
X005310Y007074D02*
X006247Y007074D01*
X006705Y007074D02*
X006745Y007074D01*
X006745Y006916D02*
X006705Y006916D01*
X006705Y006757D02*
X006745Y006757D01*
X006745Y006745D02*
X006705Y006745D01*
X006705Y006705D01*
X006745Y006705D01*
X006745Y006745D01*
X006745Y007505D01*
X006763Y007505D01*
X006837Y007493D01*
X006909Y007470D01*
X006977Y007436D01*
X007038Y007391D01*
X007440Y007391D01*
X007464Y007415D02*
X007335Y007286D01*
X007265Y007116D01*
X007265Y006333D01*
X007335Y006164D01*
X007464Y006035D01*
X007633Y005965D01*
X007816Y005965D01*
X007986Y006035D01*
X008115Y006164D01*
X008185Y006333D01*
X008185Y007116D01*
X008115Y007286D01*
X007986Y007415D01*
X007816Y007485D01*
X007633Y007485D01*
X007464Y007415D01*
X007313Y007233D02*
X007158Y007233D01*
X007170Y007209D02*
X007136Y007277D01*
X007091Y007338D01*
X007038Y007391D01*
X007170Y007209D02*
X007193Y007137D01*
X007205Y007063D01*
X007205Y006745D01*
X006745Y006745D01*
X006745Y006705D02*
X007205Y006705D01*
X007205Y006387D01*
X007193Y006313D01*
X007170Y006241D01*
X007136Y006173D01*
X007091Y006112D01*
X007038Y006059D01*
X006977Y006014D01*
X006909Y005980D01*
X006837Y005957D01*
X006763Y005945D01*
X006745Y005945D01*
X006745Y006705D01*
X006745Y006599D02*
X006705Y006599D01*
X006705Y006440D02*
X006745Y006440D01*
X006745Y006282D02*
X006705Y006282D01*
X006705Y006123D02*
X006745Y006123D01*
X006745Y005965D02*
X006705Y005965D01*
X006589Y005965D02*
X003986Y005965D01*
X003870Y005945D02*
X003870Y006705D01*
X003830Y006705D01*
X003830Y006745D01*
X003370Y006745D01*
X003370Y007063D01*
X003382Y007137D01*
X003405Y007209D01*
X003439Y007277D01*
X003484Y007338D01*
X003537Y007391D01*
X003417Y007233D02*
X002190Y007233D01*
X002040Y007074D02*
X003372Y007074D01*
X003370Y006916D02*
X001914Y006916D01*
X002144Y006757D02*
X003370Y006757D01*
X003370Y006599D02*
X002222Y006599D01*
X002235Y006440D02*
X003370Y006440D01*
X003392Y006282D02*
X002193Y006282D01*
X002074Y006123D02*
X003476Y006123D01*
X003830Y006123D02*
X003870Y006123D01*
X003870Y006282D02*
X003830Y006282D01*
X003830Y006440D02*
X003870Y006440D01*
X003870Y006599D02*
X003830Y006599D01*
X003870Y006745D02*
X004330Y006745D01*
X004330Y007063D01*
X004318Y007137D01*
X004295Y007209D01*
X004261Y007277D01*
X004216Y007338D01*
X004163Y007391D01*
X004565Y007391D01*
X004438Y007233D02*
X004283Y007233D01*
X004328Y007074D02*
X004390Y007074D01*
X004390Y006916D02*
X004330Y006916D01*
X004330Y006757D02*
X004390Y006757D01*
X004390Y006599D02*
X004330Y006599D01*
X004330Y006440D02*
X004390Y006440D01*
X004412Y006282D02*
X004308Y006282D01*
X004224Y006123D02*
X004501Y006123D01*
X003870Y006745D02*
X003870Y007505D01*
X003888Y007505D01*
X003962Y007493D01*
X004034Y007470D01*
X004102Y007436D01*
X004163Y007391D01*
X003870Y007391D02*
X003830Y007391D01*
X003830Y007233D02*
X003870Y007233D01*
X003870Y007074D02*
X003830Y007074D01*
X003830Y006916D02*
X003870Y006916D01*
X003870Y006757D02*
X003830Y006757D01*
X003100Y008184D02*
X000597Y008184D01*
X000600Y008342D02*
X003100Y008342D01*
X001495Y007867D02*
X001455Y007867D01*
X001455Y007708D02*
X001495Y007708D01*
X001495Y007550D02*
X001455Y007550D01*
X001455Y007391D02*
X001495Y007391D01*
X001495Y007233D02*
X001455Y007233D01*
X001455Y007074D02*
X001495Y007074D01*
X000904Y004855D02*
X000580Y004855D01*
X000580Y004697D02*
X000769Y004697D01*
X000715Y004538D02*
X000580Y004538D01*
X000580Y004380D02*
X000717Y004380D01*
X000782Y004221D02*
X000580Y004221D01*
X000580Y004063D02*
X000969Y004063D01*
X000960Y003904D02*
X000580Y003904D01*
X000580Y003746D02*
X000778Y003746D01*
X000695Y003455D02*
X000695Y003437D01*
X000707Y003363D01*
X000730Y003291D01*
X000764Y003223D01*
X000809Y003162D01*
X000862Y003109D01*
X000923Y003064D01*
X000991Y003030D01*
X001063Y003007D01*
X001137Y002995D01*
X001455Y002995D01*
X001455Y003455D01*
X000695Y003455D01*
X000696Y003429D02*
X000580Y003429D01*
X000580Y003270D02*
X000741Y003270D01*
X000860Y003112D02*
X000580Y003112D01*
X000580Y002953D02*
X002997Y002953D01*
X002995Y002795D02*
X000580Y002795D01*
X000580Y002636D02*
X002995Y002636D01*
X002995Y002478D02*
X000580Y002478D01*
X000580Y002319D02*
X002995Y002319D01*
X003455Y002319D02*
X003495Y002319D01*
X003495Y002161D02*
X003455Y002161D01*
X003455Y002002D02*
X003495Y002002D01*
X003495Y002478D02*
X003455Y002478D01*
X003455Y002636D02*
X003495Y002636D01*
X003495Y002795D02*
X003455Y002795D01*
X003455Y002953D02*
X003495Y002953D01*
X003495Y003112D02*
X003455Y003112D01*
X003455Y003270D02*
X003495Y003270D01*
X003168Y003270D02*
X002209Y003270D01*
X002090Y003112D02*
X003044Y003112D01*
X002255Y003495D02*
X001495Y003495D01*
X001495Y003955D01*
X001813Y003955D01*
X001887Y003943D01*
X001959Y003920D01*
X002027Y003886D01*
X002088Y003841D01*
X002141Y003788D01*
X002186Y003727D01*
X002220Y003659D01*
X002243Y003587D01*
X002172Y003746D02*
X011600Y003746D01*
X011600Y003904D02*
X001990Y003904D01*
X001495Y003904D02*
X001455Y003904D01*
X001455Y003746D02*
X001495Y003746D01*
X001495Y003587D02*
X001455Y003587D01*
X001455Y003429D02*
X001495Y003429D01*
X001495Y003270D02*
X001455Y003270D01*
X001455Y003112D02*
X001495Y003112D01*
X000788Y002161D02*
X000580Y002161D01*
X006705Y007233D02*
X006745Y007233D01*
X006745Y007391D02*
X006705Y007391D01*
X007203Y007074D02*
X007265Y007074D01*
X007265Y006916D02*
X007205Y006916D01*
X007205Y006757D02*
X007265Y006757D01*
X007265Y006599D02*
X007205Y006599D01*
X007205Y006440D02*
X007265Y006440D01*
X007287Y006282D02*
X007183Y006282D01*
X007099Y006123D02*
X007376Y006123D01*
X006861Y005965D02*
X011600Y005965D01*
X011600Y006123D02*
X008074Y006123D01*
X008163Y006282D02*
X011600Y006282D01*
X011600Y006440D02*
X010766Y006440D01*
X010736Y006410D02*
X010865Y006539D01*
X010935Y006708D01*
X010935Y007491D01*
X010865Y007661D01*
X010736Y007790D01*
X010566Y007860D01*
X010383Y007860D01*
X010214Y007790D01*
X010085Y007661D01*
X010015Y007491D01*
X010015Y006708D01*
X010085Y006539D01*
X010214Y006410D01*
X010383Y006340D01*
X010566Y006340D01*
X010736Y006410D01*
X010889Y006599D02*
X011600Y006599D01*
X011600Y006757D02*
X010935Y006757D01*
X010935Y006916D02*
X011600Y006916D01*
X011600Y007074D02*
X010935Y007074D01*
X010935Y007233D02*
X011600Y007233D01*
X011600Y007391D02*
X010935Y007391D01*
X010911Y007550D02*
X011600Y007550D01*
X011600Y007708D02*
X010818Y007708D01*
X010566Y008340D02*
X010383Y008340D01*
X010214Y008410D01*
X010085Y008539D01*
X010015Y008708D01*
X010015Y009491D01*
X010085Y009661D01*
X010214Y009790D01*
X010383Y009860D01*
X010566Y009860D01*
X010736Y009790D01*
X010865Y009661D01*
X010935Y009491D01*
X010935Y008708D01*
X010865Y008539D01*
X010736Y008410D01*
X010566Y008340D01*
X010571Y008342D02*
X011600Y008342D01*
X011600Y008184D02*
X008225Y008184D01*
X008225Y008342D02*
X009331Y008342D01*
X009363Y008332D02*
X009437Y008320D01*
X009455Y008320D01*
X009455Y009080D01*
X008995Y009080D01*
X008995Y008762D01*
X009007Y008688D01*
X009030Y008616D01*
X009064Y008548D01*
X009109Y008487D01*
X009162Y008434D01*
X009223Y008389D01*
X009291Y008355D01*
X009363Y008332D01*
X009455Y008342D02*
X009495Y008342D01*
X009495Y008320D02*
X009513Y008320D01*
X009587Y008332D01*
X009659Y008355D01*
X009727Y008389D01*
X009788Y008434D01*
X009841Y008487D01*
X009886Y008548D01*
X009920Y008616D01*
X009943Y008688D01*
X009955Y008762D01*
X009955Y009080D01*
X009495Y009080D01*
X009495Y009120D01*
X009455Y009120D01*
X009455Y009880D01*
X009437Y009880D01*
X009363Y009868D01*
X009291Y009845D01*
X009223Y009811D01*
X009162Y009766D01*
X009109Y009713D01*
X009064Y009652D01*
X009030Y009584D01*
X009007Y009512D01*
X008995Y009438D01*
X008995Y009120D01*
X009455Y009120D01*
X009455Y009080D01*
X009495Y009080D01*
X009495Y008320D01*
X009619Y008342D02*
X010379Y008342D01*
X010124Y008501D02*
X009851Y008501D01*
X009934Y008659D02*
X010035Y008659D01*
X010015Y008818D02*
X009955Y008818D01*
X009955Y008976D02*
X010015Y008976D01*
X009955Y009120D02*
X009955Y009438D01*
X009943Y009512D01*
X009920Y009584D01*
X009886Y009652D01*
X009841Y009713D01*
X009788Y009766D01*
X009727Y009811D01*
X009659Y009845D01*
X009587Y009868D01*
X009513Y009880D01*
X009495Y009880D01*
X009495Y009120D01*
X009955Y009120D01*
X009955Y009135D02*
X010015Y009135D01*
X010015Y009293D02*
X009955Y009293D01*
X009953Y009452D02*
X010015Y009452D01*
X010064Y009610D02*
X009907Y009610D01*
X009784Y009769D02*
X010193Y009769D01*
X010757Y009769D02*
X011600Y009769D01*
X011600Y009927D02*
X008225Y009927D01*
X008225Y009769D02*
X009166Y009769D01*
X009043Y009610D02*
X008225Y009610D01*
X008225Y009452D02*
X008997Y009452D01*
X008995Y009293D02*
X008225Y009293D01*
X008225Y009135D02*
X008995Y009135D01*
X008995Y008976D02*
X008225Y008976D01*
X008225Y008818D02*
X008995Y008818D01*
X009016Y008659D02*
X008225Y008659D01*
X008225Y008501D02*
X009099Y008501D01*
X009455Y008501D02*
X009495Y008501D01*
X009495Y008659D02*
X009455Y008659D01*
X009455Y008818D02*
X009495Y008818D01*
X009495Y008976D02*
X009455Y008976D01*
X009455Y009135D02*
X009495Y009135D01*
X009495Y009293D02*
X009455Y009293D01*
X009455Y009452D02*
X009495Y009452D01*
X009495Y009610D02*
X009455Y009610D01*
X009455Y009769D02*
X009495Y009769D01*
X009495Y010445D02*
X009513Y010445D01*
X009587Y010457D01*
X009659Y010480D01*
X009727Y010514D01*
X009788Y010559D01*
X009841Y010612D01*
X009886Y010673D01*
X009920Y010741D01*
X009943Y010813D01*
X009955Y010887D01*
X009955Y011205D01*
X009495Y011205D01*
X009495Y010445D01*
X009495Y010561D02*
X009455Y010561D01*
X009455Y010720D02*
X009495Y010720D01*
X009495Y010878D02*
X009455Y010878D01*
X009455Y011037D02*
X009495Y011037D01*
X009495Y011195D02*
X009455Y011195D01*
X008995Y011195D02*
X008225Y011195D01*
X008225Y011037D02*
X008995Y011037D01*
X008996Y010878D02*
X008225Y010878D01*
X008225Y010720D02*
X009041Y010720D01*
X009160Y010561D02*
X008225Y010561D01*
X008225Y010403D02*
X011600Y010403D01*
X011600Y010244D02*
X008225Y010244D01*
X008225Y010086D02*
X011600Y010086D01*
X011600Y009610D02*
X010886Y009610D01*
X010935Y009452D02*
X011600Y009452D01*
X011600Y009293D02*
X010935Y009293D01*
X010935Y009135D02*
X011600Y009135D01*
X011600Y008976D02*
X010935Y008976D01*
X010935Y008818D02*
X011600Y008818D01*
X011600Y008659D02*
X010915Y008659D01*
X010826Y008501D02*
X011600Y008501D01*
X011600Y008025D02*
X008225Y008025D01*
X008225Y007867D02*
X009357Y007867D01*
X009455Y007867D02*
X009495Y007867D01*
X009495Y007880D02*
X009495Y007120D01*
X009455Y007120D01*
X009455Y007080D01*
X008995Y007080D01*
X008995Y006762D01*
X009007Y006688D01*
X009030Y006616D01*
X009064Y006548D01*
X009109Y006487D01*
X009162Y006434D01*
X009223Y006389D01*
X009291Y006355D01*
X009363Y006332D01*
X009437Y006320D01*
X009455Y006320D01*
X009455Y007080D01*
X009495Y007080D01*
X009495Y007120D01*
X009955Y007120D01*
X009955Y007438D01*
X009943Y007512D01*
X009920Y007584D01*
X009886Y007652D01*
X009841Y007713D01*
X009788Y007766D01*
X009727Y007811D01*
X009659Y007845D01*
X009587Y007868D01*
X009513Y007880D01*
X009495Y007880D01*
X009593Y007867D02*
X011600Y007867D01*
X010132Y007708D02*
X009845Y007708D01*
X009931Y007550D02*
X010039Y007550D01*
X010015Y007391D02*
X009955Y007391D01*
X009955Y007233D02*
X010015Y007233D01*
X010015Y007074D02*
X009955Y007074D01*
X009955Y007080D02*
X009495Y007080D01*
X009495Y006320D01*
X009513Y006320D01*
X009587Y006332D01*
X009659Y006355D01*
X009727Y006389D01*
X009788Y006434D01*
X009841Y006487D01*
X009886Y006548D01*
X009920Y006616D01*
X009943Y006688D01*
X009955Y006762D01*
X009955Y007080D01*
X009955Y006916D02*
X010015Y006916D01*
X010015Y006757D02*
X009954Y006757D01*
X009911Y006599D02*
X010061Y006599D01*
X010184Y006440D02*
X009794Y006440D01*
X009495Y006440D02*
X009455Y006440D01*
X009455Y006599D02*
X009495Y006599D01*
X009495Y006757D02*
X009455Y006757D01*
X009455Y006916D02*
X009495Y006916D01*
X009495Y007074D02*
X009455Y007074D01*
X009455Y007233D02*
X009495Y007233D01*
X009495Y007391D02*
X009455Y007391D01*
X009455Y007550D02*
X009495Y007550D01*
X009495Y007708D02*
X009455Y007708D01*
X008995Y007391D02*
X008010Y007391D01*
X008137Y007233D02*
X008995Y007233D01*
X008995Y007074D02*
X008185Y007074D01*
X008185Y006916D02*
X008995Y006916D01*
X008996Y006757D02*
X008185Y006757D01*
X008185Y006599D02*
X009039Y006599D01*
X009156Y006440D02*
X008185Y006440D01*
X009455Y005489D02*
X009495Y005489D01*
X009495Y005331D02*
X009455Y005331D01*
X009455Y005172D02*
X009495Y005172D01*
X009495Y005014D02*
X009455Y005014D01*
X009455Y004697D02*
X009495Y004697D01*
X009495Y004538D02*
X009455Y004538D01*
X009455Y004380D02*
X009495Y004380D01*
X009495Y004221D02*
X009455Y004221D01*
X009736Y003429D02*
X010247Y003429D01*
X010079Y003270D02*
X009889Y003270D01*
X009947Y003112D02*
X010015Y003112D01*
X010015Y002953D02*
X009955Y002953D01*
X009955Y002795D02*
X010015Y002795D01*
X010015Y002636D02*
X009955Y002636D01*
X009955Y002478D02*
X010015Y002478D01*
X010021Y002319D02*
X009944Y002319D01*
X009876Y002161D02*
X010089Y002161D01*
X010902Y004380D02*
X011600Y004380D01*
X011600Y004538D02*
X010935Y004538D01*
X010935Y004697D02*
X011600Y004697D01*
X011600Y004855D02*
X010935Y004855D01*
X010935Y005014D02*
X011600Y005014D01*
X011600Y005172D02*
X010935Y005172D01*
X010898Y005331D02*
X011600Y005331D01*
X011600Y005489D02*
X010787Y005489D01*
X010163Y005489D02*
X009815Y005489D01*
X009921Y005331D02*
X010052Y005331D01*
X010015Y005172D02*
X009955Y005172D01*
X009955Y005014D02*
X010015Y005014D01*
X010188Y010561D02*
X009790Y010561D01*
X009909Y010720D02*
X010062Y010720D01*
X010015Y010878D02*
X009954Y010878D01*
X009955Y011037D02*
X010015Y011037D01*
X010015Y011195D02*
X009955Y011195D01*
X009955Y011354D02*
X010015Y011354D01*
X010015Y011512D02*
X009955Y011512D01*
X009932Y011671D02*
X010037Y011671D01*
X010128Y011829D02*
X009847Y011829D01*
X009103Y011829D02*
X008225Y011829D01*
X008225Y011671D02*
X009018Y011671D01*
X008995Y011512D02*
X008225Y011512D01*
X008225Y011354D02*
X008995Y011354D01*
X010762Y010561D02*
X011600Y010561D01*
X011600Y010720D02*
X010888Y010720D01*
X010935Y010878D02*
X011600Y010878D01*
X011600Y011037D02*
X010935Y011037D01*
X010935Y011195D02*
X011600Y011195D01*
X011600Y011354D02*
X010935Y011354D01*
X010935Y011512D02*
X011016Y011512D01*
X011434Y011512D02*
X011600Y011512D01*
D12*
X007475Y009350D03*
D13*
X006350Y009975D01*
X004600Y010600D01*
X003475Y010600D01*
X002225Y010975D01*
M02*
