G75*
%MOIN*%
%OFA0B0*%
%FSLAX24Y24*%
%IPPOS*%
%LPD*%
%AMOC8*
5,1,8,0,0,1.08239X$1,22.5*
%
%ADD10C,0.0600*%
%ADD11R,0.0480X0.0880*%
%ADD12R,0.1417X0.0866*%
%ADD13C,0.0060*%
%ADD14C,0.0560*%
%ADD15C,0.0100*%
%ADD16C,0.0160*%
%ADD17C,0.0320*%
%ADD18R,0.0396X0.0396*%
D10*
X001175Y003475D02*
X001775Y003475D01*
X001775Y004475D02*
X001175Y004475D01*
X001175Y006475D02*
X001775Y006475D01*
X001775Y007475D02*
X001175Y007475D01*
X001925Y009975D02*
X002525Y009975D01*
X002525Y010975D02*
X001925Y010975D01*
X003850Y007025D02*
X003850Y006425D01*
X004850Y006425D02*
X004850Y007025D01*
X006725Y007025D02*
X006725Y006425D01*
X007725Y006425D02*
X007725Y007025D01*
X009475Y006800D02*
X009475Y007400D01*
X010475Y007400D02*
X010475Y006800D01*
X010475Y005150D02*
X010475Y004550D01*
X009475Y004550D02*
X009475Y005150D01*
X007850Y005025D02*
X007850Y004425D01*
X006850Y004425D02*
X006850Y005025D01*
X005225Y005025D02*
X005225Y004425D01*
X004225Y004425D02*
X004225Y005025D01*
X004475Y002900D02*
X004475Y002300D01*
X003475Y002300D02*
X003475Y002900D01*
X006350Y002900D02*
X006350Y002300D01*
X007350Y002300D02*
X007350Y002900D01*
X009475Y003025D02*
X009475Y002425D01*
X010475Y002425D02*
X010475Y003025D01*
X010475Y008800D02*
X010475Y009400D01*
X009475Y009400D02*
X009475Y008800D01*
X009475Y010925D02*
X009475Y011525D01*
X010475Y011525D02*
X010475Y010925D01*
D11*
X006635Y008880D03*
X005725Y008880D03*
X004815Y008880D03*
D12*
X005725Y011320D03*
D13*
X004675Y009050D02*
X004815Y008880D01*
D14*
X004350Y008880D01*
X004350Y008850D01*
X004815Y008850D01*
X004350Y008850D02*
X001475Y008850D01*
X001475Y009975D01*
X002225Y009975D01*
X001475Y008850D02*
X001475Y007475D01*
X006635Y008880D02*
X007475Y008880D01*
X007475Y009350D01*
D15*
X006850Y010350D02*
X005225Y010350D01*
X005225Y008100D01*
X003850Y008100D01*
X003850Y012100D01*
X006850Y012100D01*
X006850Y010350D01*
X006850Y010443D02*
X003850Y010443D01*
X003850Y010541D02*
X006850Y010541D01*
X006850Y010640D02*
X003850Y010640D01*
X003850Y010738D02*
X004993Y010738D01*
X004997Y010737D02*
X005675Y010737D01*
X005675Y011270D01*
X005775Y011270D01*
X005775Y010737D01*
X006453Y010737D01*
X006492Y010747D01*
X006526Y010767D01*
X006554Y010795D01*
X006573Y010829D01*
X006584Y010867D01*
X006584Y011270D01*
X005775Y011270D01*
X005775Y011370D01*
X006584Y011370D01*
X006584Y011773D01*
X006573Y011811D01*
X006554Y011845D01*
X006526Y011873D01*
X006492Y011893D01*
X006453Y011903D01*
X005775Y011903D01*
X005775Y011370D01*
X005675Y011370D01*
X005675Y011270D01*
X004866Y011270D01*
X004866Y010867D01*
X004877Y010829D01*
X004896Y010795D01*
X004924Y010767D01*
X004958Y010747D01*
X004997Y010737D01*
X004875Y010837D02*
X003850Y010837D01*
X003850Y010935D02*
X004866Y010935D01*
X004866Y011034D02*
X003850Y011034D01*
X003850Y011132D02*
X004866Y011132D01*
X004866Y011231D02*
X003850Y011231D01*
X003850Y011329D02*
X005675Y011329D01*
X005675Y011370D02*
X004866Y011370D01*
X004866Y011773D01*
X004877Y011811D01*
X004896Y011845D01*
X004924Y011873D01*
X004958Y011893D01*
X004997Y011903D01*
X005675Y011903D01*
X005675Y011370D01*
X005675Y011428D02*
X005775Y011428D01*
X005775Y011526D02*
X005675Y011526D01*
X005675Y011625D02*
X005775Y011625D01*
X005775Y011723D02*
X005675Y011723D01*
X005675Y011822D02*
X005775Y011822D01*
X005775Y011329D02*
X006850Y011329D01*
X006850Y011231D02*
X006584Y011231D01*
X006584Y011132D02*
X006850Y011132D01*
X006850Y011034D02*
X006584Y011034D01*
X006584Y010935D02*
X006850Y010935D01*
X006850Y010837D02*
X006575Y010837D01*
X006457Y010738D02*
X006850Y010738D01*
X006850Y011428D02*
X006584Y011428D01*
X006584Y011526D02*
X006850Y011526D01*
X006850Y011625D02*
X006584Y011625D01*
X006584Y011723D02*
X006850Y011723D01*
X006850Y011822D02*
X006567Y011822D01*
X006850Y011920D02*
X003850Y011920D01*
X003850Y011822D02*
X004883Y011822D01*
X004866Y011723D02*
X003850Y011723D01*
X003850Y011625D02*
X004866Y011625D01*
X004866Y011526D02*
X003850Y011526D01*
X003850Y011428D02*
X004866Y011428D01*
X005675Y011231D02*
X005775Y011231D01*
X005775Y011132D02*
X005675Y011132D01*
X005675Y011034D02*
X005775Y011034D01*
X005775Y010935D02*
X005675Y010935D01*
X005675Y010837D02*
X005775Y010837D01*
X005775Y010738D02*
X005675Y010738D01*
X005225Y010344D02*
X003850Y010344D01*
X003850Y010246D02*
X005225Y010246D01*
X005225Y010147D02*
X003850Y010147D01*
X003850Y010049D02*
X005225Y010049D01*
X005225Y009950D02*
X003850Y009950D01*
X003850Y009852D02*
X005225Y009852D01*
X005225Y009753D02*
X003850Y009753D01*
X003850Y009655D02*
X005225Y009655D01*
X005225Y009556D02*
X003850Y009556D01*
X003850Y009458D02*
X004513Y009458D01*
X004517Y009460D02*
X004483Y009440D01*
X004455Y009412D01*
X004435Y009378D01*
X004425Y009340D01*
X004425Y008930D01*
X004765Y008930D01*
X004765Y009470D01*
X004555Y009470D01*
X004517Y009460D01*
X004430Y009359D02*
X003850Y009359D01*
X003850Y009261D02*
X004425Y009261D01*
X004425Y009162D02*
X003850Y009162D01*
X003850Y009064D02*
X004425Y009064D01*
X004425Y008965D02*
X003850Y008965D01*
X003850Y008867D02*
X004765Y008867D01*
X004765Y008830D02*
X004425Y008830D01*
X004425Y008420D01*
X004435Y008382D01*
X004455Y008348D01*
X004483Y008320D01*
X004517Y008300D01*
X004555Y008290D01*
X004765Y008290D01*
X004765Y008830D01*
X004865Y008830D01*
X004865Y008930D01*
X005205Y008930D01*
X005205Y009340D01*
X005195Y009378D01*
X005175Y009412D01*
X005147Y009440D01*
X005113Y009460D01*
X005075Y009470D01*
X004865Y009470D01*
X004865Y008930D01*
X004765Y008930D01*
X004765Y008830D01*
X004765Y008768D02*
X004865Y008768D01*
X004865Y008830D02*
X004865Y008290D01*
X005075Y008290D01*
X005113Y008300D01*
X005147Y008320D01*
X005175Y008348D01*
X005195Y008382D01*
X005205Y008420D01*
X005205Y008830D01*
X004865Y008830D01*
X004865Y008867D02*
X005225Y008867D01*
X005225Y008965D02*
X005205Y008965D01*
X005205Y009064D02*
X005225Y009064D01*
X005225Y009162D02*
X005205Y009162D01*
X005205Y009261D02*
X005225Y009261D01*
X005225Y009359D02*
X005200Y009359D01*
X005225Y009458D02*
X005117Y009458D01*
X004865Y009458D02*
X004765Y009458D01*
X004765Y009359D02*
X004865Y009359D01*
X004865Y009261D02*
X004765Y009261D01*
X004765Y009162D02*
X004865Y009162D01*
X004865Y009064D02*
X004765Y009064D01*
X004765Y008965D02*
X004865Y008965D01*
X004865Y008670D02*
X004765Y008670D01*
X004765Y008571D02*
X004865Y008571D01*
X004865Y008473D02*
X004765Y008473D01*
X004765Y008374D02*
X004865Y008374D01*
X005190Y008374D02*
X005225Y008374D01*
X005225Y008276D02*
X003850Y008276D01*
X003850Y008374D02*
X004440Y008374D01*
X004425Y008473D02*
X003850Y008473D01*
X003850Y008571D02*
X004425Y008571D01*
X004425Y008670D02*
X003850Y008670D01*
X003850Y008768D02*
X004425Y008768D01*
X003850Y008177D02*
X005225Y008177D01*
X005205Y008473D02*
X005225Y008473D01*
X005225Y008571D02*
X005205Y008571D01*
X005205Y008670D02*
X005225Y008670D01*
X005225Y008768D02*
X005205Y008768D01*
X003850Y012019D02*
X006850Y012019D01*
D16*
X001527Y002130D02*
X001778Y001984D01*
X001984Y001778D01*
X002130Y001527D01*
X002205Y001245D01*
X002205Y001100D01*
X010120Y001100D01*
X010120Y001245D01*
X010195Y001527D01*
X010341Y001778D01*
X010507Y001945D01*
X010495Y001945D01*
X010495Y002705D01*
X010495Y002745D01*
X010455Y002745D01*
X010455Y003505D01*
X010437Y003505D01*
X010363Y003493D01*
X010291Y003470D01*
X010223Y003436D01*
X010162Y003391D01*
X010109Y003338D01*
X010064Y003277D01*
X010030Y003209D01*
X010007Y003137D01*
X009995Y003063D01*
X009995Y002745D01*
X010455Y002745D01*
X010455Y002705D01*
X010495Y002705D01*
X010955Y002705D01*
X010955Y002387D01*
X010943Y002313D01*
X010920Y002241D01*
X010886Y002173D01*
X010867Y002148D01*
X011080Y002205D01*
X011370Y002205D01*
X011475Y002177D01*
X011475Y011523D01*
X011370Y011495D01*
X011080Y011495D01*
X010955Y011528D01*
X010955Y011245D01*
X010495Y011245D01*
X010495Y011205D01*
X010955Y011205D01*
X010955Y010887D01*
X010943Y010813D01*
X010920Y010741D01*
X010886Y010673D01*
X010841Y010612D01*
X010788Y010559D01*
X010727Y010514D01*
X010659Y010480D01*
X010587Y010457D01*
X010513Y010445D01*
X010495Y010445D01*
X010495Y011205D01*
X010455Y011205D01*
X010455Y010445D01*
X010437Y010445D01*
X010363Y010457D01*
X010291Y010480D01*
X010223Y010514D01*
X010162Y010559D01*
X010109Y010612D01*
X010064Y010673D01*
X010030Y010741D01*
X010007Y010813D01*
X009995Y010887D01*
X009995Y011205D01*
X010455Y011205D01*
X010455Y011245D01*
X009995Y011245D01*
X009995Y011563D01*
X010007Y011637D01*
X010030Y011709D01*
X010064Y011777D01*
X010109Y011838D01*
X010162Y011891D01*
X010223Y011936D01*
X010291Y011970D01*
X010307Y011975D01*
X009591Y011975D01*
X009736Y011915D01*
X009865Y011786D01*
X009935Y011616D01*
X009935Y010833D01*
X009865Y010664D01*
X009736Y010535D01*
X009566Y010465D01*
X009383Y010465D01*
X009214Y010535D01*
X009085Y010664D01*
X009015Y010833D01*
X009015Y011616D01*
X009085Y011786D01*
X009214Y011915D01*
X009359Y011975D01*
X008225Y011975D01*
X008225Y007600D01*
X003100Y007600D01*
X003100Y005725D01*
X000725Y005725D01*
X000725Y004643D01*
X000730Y004659D01*
X000764Y004727D01*
X000809Y004788D01*
X000862Y004841D01*
X000923Y004886D01*
X000991Y004920D01*
X001063Y004943D01*
X001137Y004955D01*
X001455Y004955D01*
X001455Y004495D01*
X001495Y004495D01*
X001495Y004955D01*
X001813Y004955D01*
X001887Y004943D01*
X001959Y004920D01*
X002027Y004886D01*
X002088Y004841D01*
X002141Y004788D01*
X002186Y004727D01*
X002220Y004659D01*
X002243Y004587D01*
X002255Y004513D01*
X002255Y004495D01*
X001495Y004495D01*
X001495Y004455D01*
X002255Y004455D01*
X002255Y004437D01*
X002243Y004363D01*
X002220Y004291D01*
X002186Y004223D01*
X002141Y004162D01*
X002088Y004109D01*
X002027Y004064D01*
X001959Y004030D01*
X001887Y004007D01*
X001813Y003995D01*
X001495Y003995D01*
X001495Y004455D01*
X001455Y004455D01*
X001455Y003995D01*
X001137Y003995D01*
X001063Y004007D01*
X000991Y004030D01*
X000923Y004064D01*
X000862Y004109D01*
X000809Y004162D01*
X000764Y004223D01*
X000730Y004291D01*
X000725Y004307D01*
X000725Y003591D01*
X000785Y003736D01*
X000914Y003865D01*
X001083Y003935D01*
X001866Y003935D01*
X002036Y003865D01*
X002165Y003736D01*
X002235Y003566D01*
X002235Y003383D01*
X002165Y003214D01*
X002036Y003085D01*
X001866Y003015D01*
X001083Y003015D01*
X000914Y003085D01*
X000785Y003214D01*
X000725Y003359D01*
X000725Y002143D01*
X000955Y002205D01*
X001245Y002205D01*
X001527Y002130D01*
X001412Y002161D02*
X003035Y002161D01*
X003015Y002208D02*
X003085Y002039D01*
X003214Y001910D01*
X003383Y001840D01*
X003566Y001840D01*
X003736Y001910D01*
X003865Y002039D01*
X003935Y002208D01*
X003935Y002991D01*
X003865Y003161D01*
X003736Y003290D01*
X003566Y003360D01*
X003383Y003360D01*
X003214Y003290D01*
X003085Y003161D01*
X003015Y002991D01*
X003015Y002208D01*
X003015Y002319D02*
X000725Y002319D01*
X000725Y002161D02*
X000788Y002161D01*
X000725Y002478D02*
X003015Y002478D01*
X003015Y002636D02*
X000725Y002636D01*
X000725Y002795D02*
X003015Y002795D01*
X003015Y002953D02*
X000725Y002953D01*
X000725Y003112D02*
X000888Y003112D01*
X000762Y003270D02*
X000725Y003270D01*
X000725Y003746D02*
X000795Y003746D01*
X000725Y003904D02*
X001009Y003904D01*
X000927Y004063D02*
X000725Y004063D01*
X000725Y004221D02*
X000766Y004221D01*
X000749Y004697D02*
X000725Y004697D01*
X000725Y004855D02*
X000881Y004855D01*
X000725Y005014D02*
X003765Y005014D01*
X003765Y005116D02*
X003765Y004333D01*
X003835Y004164D01*
X003964Y004035D01*
X004133Y003965D01*
X004316Y003965D01*
X004486Y004035D01*
X004615Y004164D01*
X004685Y004333D01*
X004685Y005116D01*
X004615Y005286D01*
X004486Y005415D01*
X004316Y005485D01*
X004133Y005485D01*
X003964Y005415D01*
X003835Y005286D01*
X003765Y005116D01*
X003788Y005172D02*
X000725Y005172D01*
X000725Y005331D02*
X003880Y005331D01*
X003765Y004855D02*
X002069Y004855D01*
X002201Y004697D02*
X003765Y004697D01*
X003765Y004538D02*
X002251Y004538D01*
X002246Y004380D02*
X003765Y004380D01*
X003812Y004221D02*
X002184Y004221D01*
X002023Y004063D02*
X003937Y004063D01*
X004513Y004063D02*
X004909Y004063D01*
X004912Y004059D02*
X004973Y004014D01*
X005041Y003980D01*
X005113Y003957D01*
X005187Y003945D01*
X005205Y003945D01*
X005205Y004705D01*
X004745Y004705D01*
X004745Y004387D01*
X004757Y004313D01*
X004780Y004241D01*
X004814Y004173D01*
X004859Y004112D01*
X004912Y004059D01*
X004790Y004221D02*
X004638Y004221D01*
X004685Y004380D02*
X004746Y004380D01*
X004745Y004538D02*
X004685Y004538D01*
X004685Y004697D02*
X004745Y004697D01*
X004745Y004745D02*
X005205Y004745D01*
X005205Y005505D01*
X005187Y005505D01*
X005113Y005493D01*
X005041Y005470D01*
X004973Y005436D01*
X004912Y005391D01*
X004859Y005338D01*
X004814Y005277D01*
X004780Y005209D01*
X004757Y005137D01*
X004745Y005063D01*
X004745Y004745D01*
X004745Y004855D02*
X004685Y004855D01*
X004685Y005014D02*
X004745Y005014D01*
X004768Y005172D02*
X004662Y005172D01*
X004570Y005331D02*
X004854Y005331D01*
X005100Y005489D02*
X000725Y005489D01*
X000725Y005648D02*
X011475Y005648D01*
X011475Y005806D02*
X003100Y005806D01*
X003100Y005965D02*
X004714Y005965D01*
X004738Y005957D02*
X004812Y005945D01*
X004830Y005945D01*
X004830Y006705D01*
X004370Y006705D01*
X004370Y006387D01*
X004382Y006313D01*
X004405Y006241D01*
X004439Y006173D01*
X004484Y006112D01*
X004537Y006059D01*
X004598Y006014D01*
X004666Y005980D01*
X004738Y005957D01*
X004830Y005965D02*
X004870Y005965D01*
X004870Y005945D02*
X004888Y005945D01*
X004962Y005957D01*
X005034Y005980D01*
X005102Y006014D01*
X005163Y006059D01*
X005216Y006112D01*
X005261Y006173D01*
X005295Y006241D01*
X005318Y006313D01*
X005330Y006387D01*
X005330Y006705D01*
X004870Y006705D01*
X004870Y006745D01*
X004830Y006745D01*
X004830Y007505D01*
X004812Y007505D01*
X004738Y007493D01*
X004666Y007470D01*
X004598Y007436D01*
X004537Y007391D01*
X004135Y007391D01*
X004111Y007415D02*
X003941Y007485D01*
X003758Y007485D01*
X003589Y007415D01*
X003460Y007286D01*
X003390Y007116D01*
X003390Y006333D01*
X003460Y006164D01*
X003589Y006035D01*
X003758Y005965D01*
X003941Y005965D01*
X004111Y006035D01*
X004240Y006164D01*
X004310Y006333D01*
X004310Y007116D01*
X004240Y007286D01*
X004111Y007415D01*
X004262Y007233D02*
X004417Y007233D01*
X004405Y007209D02*
X004382Y007137D01*
X004370Y007063D01*
X004370Y006745D01*
X004830Y006745D01*
X004830Y006705D01*
X004870Y006705D01*
X004870Y005945D01*
X004986Y005965D02*
X007589Y005965D01*
X007613Y005957D02*
X007687Y005945D01*
X007705Y005945D01*
X007705Y006705D01*
X007245Y006705D01*
X007245Y006387D01*
X007257Y006313D01*
X007280Y006241D01*
X007314Y006173D01*
X007359Y006112D01*
X007412Y006059D01*
X007473Y006014D01*
X007541Y005980D01*
X007613Y005957D01*
X007705Y005965D02*
X007745Y005965D01*
X007745Y005945D02*
X007763Y005945D01*
X007837Y005957D01*
X007909Y005980D01*
X007977Y006014D01*
X008038Y006059D01*
X008091Y006112D01*
X008136Y006173D01*
X008170Y006241D01*
X008193Y006313D01*
X008205Y006387D01*
X008205Y006705D01*
X007745Y006705D01*
X007745Y006745D01*
X007705Y006745D01*
X007705Y007505D01*
X007687Y007505D01*
X007613Y007493D01*
X007541Y007470D01*
X007473Y007436D01*
X007412Y007391D01*
X007010Y007391D01*
X006986Y007415D02*
X006816Y007485D01*
X006633Y007485D01*
X006464Y007415D01*
X006335Y007286D01*
X006265Y007116D01*
X006265Y006333D01*
X006335Y006164D01*
X006464Y006035D01*
X006633Y005965D01*
X006816Y005965D01*
X006986Y006035D01*
X007115Y006164D01*
X007185Y006333D01*
X007185Y007116D01*
X007115Y007286D01*
X006986Y007415D01*
X007137Y007233D02*
X007292Y007233D01*
X007280Y007209D02*
X007257Y007137D01*
X007245Y007063D01*
X007245Y006745D01*
X007705Y006745D01*
X007705Y006705D01*
X007745Y006705D01*
X007745Y005945D01*
X007861Y005965D02*
X011475Y005965D01*
X011475Y006123D02*
X008099Y006123D01*
X008183Y006282D02*
X011475Y006282D01*
X011475Y006440D02*
X010794Y006440D01*
X010788Y006434D02*
X010841Y006487D01*
X010886Y006548D01*
X010920Y006616D01*
X010943Y006688D01*
X010955Y006762D01*
X010955Y007080D01*
X010495Y007080D01*
X010495Y007120D01*
X010455Y007120D01*
X010455Y007880D01*
X010437Y007880D01*
X010363Y007868D01*
X010291Y007845D01*
X010223Y007811D01*
X010162Y007766D01*
X010109Y007713D01*
X010064Y007652D01*
X010030Y007584D01*
X010007Y007512D01*
X009995Y007438D01*
X009995Y007120D01*
X010455Y007120D01*
X010455Y007080D01*
X009995Y007080D01*
X009995Y006762D01*
X010007Y006688D01*
X010030Y006616D01*
X010064Y006548D01*
X010109Y006487D01*
X010162Y006434D01*
X010223Y006389D01*
X010291Y006355D01*
X010363Y006332D01*
X010437Y006320D01*
X010455Y006320D01*
X010455Y007080D01*
X010495Y007080D01*
X010495Y006320D01*
X010513Y006320D01*
X010587Y006332D01*
X010659Y006355D01*
X010727Y006389D01*
X010788Y006434D01*
X010911Y006599D02*
X011475Y006599D01*
X011475Y006757D02*
X010954Y006757D01*
X010955Y006916D02*
X011475Y006916D01*
X011475Y007074D02*
X010955Y007074D01*
X010955Y007120D02*
X010955Y007438D01*
X010943Y007512D01*
X010920Y007584D01*
X010886Y007652D01*
X010841Y007713D01*
X010788Y007766D01*
X010727Y007811D01*
X010659Y007845D01*
X010587Y007868D01*
X010513Y007880D01*
X010495Y007880D01*
X010495Y007120D01*
X010955Y007120D01*
X010955Y007233D02*
X011475Y007233D01*
X011475Y007391D02*
X010955Y007391D01*
X010931Y007550D02*
X011475Y007550D01*
X011475Y007708D02*
X010845Y007708D01*
X010593Y007867D02*
X011475Y007867D01*
X011475Y008025D02*
X008225Y008025D01*
X008225Y007867D02*
X010357Y007867D01*
X010455Y007867D02*
X010495Y007867D01*
X010495Y007708D02*
X010455Y007708D01*
X010455Y007550D02*
X010495Y007550D01*
X010495Y007391D02*
X010455Y007391D01*
X010455Y007233D02*
X010495Y007233D01*
X010495Y007074D02*
X010455Y007074D01*
X010455Y006916D02*
X010495Y006916D01*
X010495Y006757D02*
X010455Y006757D01*
X010455Y006599D02*
X010495Y006599D01*
X010495Y006440D02*
X010455Y006440D01*
X010156Y006440D02*
X009766Y006440D01*
X009736Y006410D02*
X009865Y006539D01*
X009935Y006708D01*
X009935Y007491D01*
X009865Y007661D01*
X009736Y007790D01*
X009566Y007860D01*
X009383Y007860D01*
X009214Y007790D01*
X009085Y007661D01*
X009015Y007491D01*
X009015Y006708D01*
X009085Y006539D01*
X009214Y006410D01*
X009383Y006340D01*
X009566Y006340D01*
X009736Y006410D01*
X009889Y006599D02*
X010039Y006599D01*
X009996Y006757D02*
X009935Y006757D01*
X009935Y006916D02*
X009995Y006916D01*
X009995Y007074D02*
X009935Y007074D01*
X009935Y007233D02*
X009995Y007233D01*
X009995Y007391D02*
X009935Y007391D01*
X009911Y007550D02*
X010019Y007550D01*
X010105Y007708D02*
X009818Y007708D01*
X009566Y008340D02*
X009383Y008340D01*
X009214Y008410D01*
X009085Y008539D01*
X009015Y008708D01*
X009015Y009491D01*
X009085Y009661D01*
X009214Y009790D01*
X009383Y009860D01*
X009566Y009860D01*
X009736Y009790D01*
X009865Y009661D01*
X009935Y009491D01*
X009935Y008708D01*
X009865Y008539D01*
X009736Y008410D01*
X009566Y008340D01*
X009571Y008342D02*
X010331Y008342D01*
X010363Y008332D02*
X010291Y008355D01*
X010223Y008389D01*
X010162Y008434D01*
X010109Y008487D01*
X010064Y008548D01*
X010030Y008616D01*
X010007Y008688D01*
X009995Y008762D01*
X009995Y009080D01*
X010455Y009080D01*
X010455Y009120D01*
X010455Y009880D01*
X010437Y009880D01*
X010363Y009868D01*
X010291Y009845D01*
X010223Y009811D01*
X010162Y009766D01*
X010109Y009713D01*
X010064Y009652D01*
X010030Y009584D01*
X010007Y009512D01*
X009995Y009438D01*
X009995Y009120D01*
X010455Y009120D01*
X010495Y009120D01*
X010495Y009880D01*
X010513Y009880D01*
X010587Y009868D01*
X010659Y009845D01*
X010727Y009811D01*
X010788Y009766D01*
X010841Y009713D01*
X010886Y009652D01*
X010920Y009584D01*
X010943Y009512D01*
X010955Y009438D01*
X010955Y009120D01*
X010495Y009120D01*
X010495Y009080D01*
X010955Y009080D01*
X010955Y008762D01*
X010943Y008688D01*
X010920Y008616D01*
X010886Y008548D01*
X010841Y008487D01*
X010788Y008434D01*
X010727Y008389D01*
X010659Y008355D01*
X010587Y008332D01*
X010513Y008320D01*
X010495Y008320D01*
X010495Y009080D01*
X010455Y009080D01*
X010455Y008320D01*
X010437Y008320D01*
X010363Y008332D01*
X010455Y008342D02*
X010495Y008342D01*
X010619Y008342D02*
X011475Y008342D01*
X011475Y008184D02*
X008225Y008184D01*
X008225Y008342D02*
X009379Y008342D01*
X009124Y008501D02*
X008225Y008501D01*
X008225Y008659D02*
X009035Y008659D01*
X009015Y008818D02*
X008225Y008818D01*
X008225Y008976D02*
X009015Y008976D01*
X009015Y009135D02*
X008225Y009135D01*
X008225Y009293D02*
X009015Y009293D01*
X009015Y009452D02*
X008225Y009452D01*
X008225Y009610D02*
X009064Y009610D01*
X009193Y009769D02*
X008225Y009769D01*
X008225Y009927D02*
X011475Y009927D01*
X011475Y009769D02*
X010784Y009769D01*
X010907Y009610D02*
X011475Y009610D01*
X011475Y009452D02*
X010953Y009452D01*
X010955Y009293D02*
X011475Y009293D01*
X011475Y009135D02*
X010955Y009135D01*
X010955Y008976D02*
X011475Y008976D01*
X011475Y008818D02*
X010955Y008818D01*
X010934Y008659D02*
X011475Y008659D01*
X011475Y008501D02*
X010851Y008501D01*
X010495Y008501D02*
X010455Y008501D01*
X010455Y008659D02*
X010495Y008659D01*
X010495Y008818D02*
X010455Y008818D01*
X010455Y008976D02*
X010495Y008976D01*
X010495Y009135D02*
X010455Y009135D01*
X010455Y009293D02*
X010495Y009293D01*
X010495Y009452D02*
X010455Y009452D01*
X010455Y009610D02*
X010495Y009610D01*
X010495Y009769D02*
X010455Y009769D01*
X010166Y009769D02*
X009757Y009769D01*
X009886Y009610D02*
X010043Y009610D01*
X009997Y009452D02*
X009935Y009452D01*
X009935Y009293D02*
X009995Y009293D01*
X009995Y009135D02*
X009935Y009135D01*
X009935Y008976D02*
X009995Y008976D01*
X009995Y008818D02*
X009935Y008818D01*
X009915Y008659D02*
X010016Y008659D01*
X010099Y008501D02*
X009826Y008501D01*
X009132Y007708D02*
X008225Y007708D01*
X008038Y007391D02*
X007977Y007436D01*
X007909Y007470D01*
X007837Y007493D01*
X007763Y007505D01*
X007745Y007505D01*
X007745Y006745D01*
X008205Y006745D01*
X008205Y007063D01*
X008193Y007137D01*
X008170Y007209D01*
X008136Y007277D01*
X008091Y007338D01*
X008038Y007391D01*
X009015Y007391D01*
X009015Y007233D02*
X008158Y007233D01*
X008203Y007074D02*
X009015Y007074D01*
X009015Y006916D02*
X008205Y006916D01*
X008205Y006757D02*
X009015Y006757D01*
X009061Y006599D02*
X008205Y006599D01*
X008205Y006440D02*
X009184Y006440D01*
X009383Y005610D02*
X009214Y005540D01*
X009085Y005411D01*
X009015Y005241D01*
X009015Y004458D01*
X009085Y004289D01*
X009214Y004160D01*
X009383Y004090D01*
X009566Y004090D01*
X009736Y004160D01*
X009865Y004289D01*
X009935Y004458D01*
X009935Y005241D01*
X009865Y005411D01*
X009736Y005540D01*
X009566Y005610D01*
X009383Y005610D01*
X009163Y005489D02*
X007975Y005489D01*
X007962Y005493D02*
X007888Y005505D01*
X007870Y005505D01*
X007870Y004745D01*
X007830Y004745D01*
X007830Y005505D01*
X007812Y005505D01*
X007738Y005493D01*
X007666Y005470D01*
X007598Y005436D01*
X007537Y005391D01*
X007484Y005338D01*
X007439Y005277D01*
X007405Y005209D01*
X007382Y005137D01*
X007370Y005063D01*
X007370Y004745D01*
X007830Y004745D01*
X007830Y004705D01*
X007370Y004705D01*
X007370Y004387D01*
X007382Y004313D01*
X007405Y004241D01*
X007439Y004173D01*
X007484Y004112D01*
X007537Y004059D01*
X007598Y004014D01*
X007666Y003980D01*
X007738Y003957D01*
X007812Y003945D01*
X007830Y003945D01*
X007830Y004705D01*
X007870Y004705D01*
X007870Y004745D01*
X008330Y004745D01*
X008330Y005063D01*
X008318Y005137D01*
X008295Y005209D01*
X008261Y005277D01*
X008216Y005338D01*
X008163Y005391D01*
X008102Y005436D01*
X008034Y005470D01*
X007962Y005493D01*
X007870Y005489D02*
X007830Y005489D01*
X007725Y005489D02*
X005350Y005489D01*
X005337Y005493D02*
X005263Y005505D01*
X005245Y005505D01*
X005245Y004745D01*
X005205Y004745D01*
X005205Y004705D01*
X005245Y004705D01*
X005245Y004745D01*
X005705Y004745D01*
X005705Y005063D01*
X005693Y005137D01*
X005670Y005209D01*
X005636Y005277D01*
X005591Y005338D01*
X005538Y005391D01*
X005477Y005436D01*
X005409Y005470D01*
X005337Y005493D01*
X005245Y005489D02*
X005205Y005489D01*
X005205Y005331D02*
X005245Y005331D01*
X005245Y005172D02*
X005205Y005172D01*
X005205Y005014D02*
X005245Y005014D01*
X005245Y004855D02*
X005205Y004855D01*
X005245Y004705D02*
X005705Y004705D01*
X005705Y004387D01*
X005693Y004313D01*
X005670Y004241D01*
X005636Y004173D01*
X005591Y004112D01*
X005538Y004059D01*
X005477Y004014D01*
X005409Y003980D01*
X005337Y003957D01*
X005263Y003945D01*
X005245Y003945D01*
X005245Y004705D01*
X005245Y004697D02*
X005205Y004697D01*
X005205Y004538D02*
X005245Y004538D01*
X005245Y004380D02*
X005205Y004380D01*
X005205Y004221D02*
X005245Y004221D01*
X005245Y004063D02*
X005205Y004063D01*
X005541Y004063D02*
X006562Y004063D01*
X006589Y004035D02*
X006758Y003965D01*
X006941Y003965D01*
X007111Y004035D01*
X007240Y004164D01*
X007310Y004333D01*
X007310Y005116D01*
X007240Y005286D01*
X007111Y005415D01*
X006941Y005485D01*
X006758Y005485D01*
X006589Y005415D01*
X006460Y005286D01*
X006390Y005116D01*
X006390Y004333D01*
X006460Y004164D01*
X006589Y004035D01*
X006437Y004221D02*
X005660Y004221D01*
X005704Y004380D02*
X006390Y004380D01*
X006390Y004538D02*
X005705Y004538D01*
X005705Y004697D02*
X006390Y004697D01*
X006390Y004855D02*
X005705Y004855D01*
X005705Y005014D02*
X006390Y005014D01*
X006413Y005172D02*
X005682Y005172D01*
X005596Y005331D02*
X006505Y005331D01*
X007195Y005331D02*
X007479Y005331D01*
X007393Y005172D02*
X007287Y005172D01*
X007310Y005014D02*
X007370Y005014D01*
X007370Y004855D02*
X007310Y004855D01*
X007310Y004697D02*
X007370Y004697D01*
X007370Y004538D02*
X007310Y004538D01*
X007310Y004380D02*
X007371Y004380D01*
X007415Y004221D02*
X007263Y004221D01*
X007138Y004063D02*
X007534Y004063D01*
X007830Y004063D02*
X007870Y004063D01*
X007870Y003945D02*
X007888Y003945D01*
X007962Y003957D01*
X008034Y003980D01*
X008102Y004014D01*
X008163Y004059D01*
X008216Y004112D01*
X008261Y004173D01*
X008295Y004241D01*
X008318Y004313D01*
X008330Y004387D01*
X008330Y004705D01*
X007870Y004705D01*
X007870Y003945D01*
X007870Y004221D02*
X007830Y004221D01*
X007830Y004380D02*
X007870Y004380D01*
X007870Y004538D02*
X007830Y004538D01*
X007830Y004697D02*
X007870Y004697D01*
X007870Y004855D02*
X007830Y004855D01*
X007830Y005014D02*
X007870Y005014D01*
X007870Y005172D02*
X007830Y005172D01*
X007830Y005331D02*
X007870Y005331D01*
X008221Y005331D02*
X009052Y005331D01*
X009015Y005172D02*
X008307Y005172D01*
X008330Y005014D02*
X009015Y005014D01*
X009015Y004855D02*
X008330Y004855D01*
X008330Y004697D02*
X009015Y004697D01*
X009015Y004538D02*
X008330Y004538D01*
X008329Y004380D02*
X009048Y004380D01*
X009153Y004221D02*
X008285Y004221D01*
X008166Y004063D02*
X011475Y004063D01*
X011475Y004221D02*
X010825Y004221D01*
X010841Y004237D02*
X010886Y004298D01*
X010920Y004366D01*
X010943Y004438D01*
X010955Y004512D01*
X010955Y004830D01*
X010495Y004830D01*
X010495Y004870D01*
X010455Y004870D01*
X010455Y005630D01*
X010437Y005630D01*
X010363Y005618D01*
X010291Y005595D01*
X010223Y005561D01*
X010162Y005516D01*
X010109Y005463D01*
X010064Y005402D01*
X010030Y005334D01*
X010007Y005262D01*
X009995Y005188D01*
X009995Y004870D01*
X010455Y004870D01*
X010455Y004830D01*
X009995Y004830D01*
X009995Y004512D01*
X010007Y004438D01*
X010030Y004366D01*
X010064Y004298D01*
X010109Y004237D01*
X010162Y004184D01*
X010223Y004139D01*
X010291Y004105D01*
X010363Y004082D01*
X010437Y004070D01*
X010455Y004070D01*
X010455Y004830D01*
X010495Y004830D01*
X010495Y004070D01*
X010513Y004070D01*
X010587Y004082D01*
X010659Y004105D01*
X010727Y004139D01*
X010788Y004184D01*
X010841Y004237D01*
X010924Y004380D02*
X011475Y004380D01*
X011475Y004538D02*
X010955Y004538D01*
X010955Y004697D02*
X011475Y004697D01*
X011475Y004855D02*
X010495Y004855D01*
X010495Y004870D02*
X010955Y004870D01*
X010955Y005188D01*
X010943Y005262D01*
X010920Y005334D01*
X010886Y005402D01*
X010841Y005463D01*
X010788Y005516D01*
X010727Y005561D01*
X010659Y005595D01*
X010587Y005618D01*
X010513Y005630D01*
X010495Y005630D01*
X010495Y004870D01*
X010455Y004855D02*
X009935Y004855D01*
X009935Y004697D02*
X009995Y004697D01*
X009995Y004538D02*
X009935Y004538D01*
X009902Y004380D02*
X010026Y004380D01*
X010125Y004221D02*
X009797Y004221D01*
X010455Y004221D02*
X010495Y004221D01*
X010495Y004380D02*
X010455Y004380D01*
X010455Y004538D02*
X010495Y004538D01*
X010495Y004697D02*
X010455Y004697D01*
X010455Y005014D02*
X010495Y005014D01*
X010495Y005172D02*
X010455Y005172D01*
X010455Y005331D02*
X010495Y005331D01*
X010495Y005489D02*
X010455Y005489D01*
X010135Y005489D02*
X009787Y005489D01*
X009898Y005331D02*
X010029Y005331D01*
X009995Y005172D02*
X009935Y005172D01*
X009935Y005014D02*
X009995Y005014D01*
X010815Y005489D02*
X011475Y005489D01*
X011475Y005331D02*
X010921Y005331D01*
X010955Y005172D02*
X011475Y005172D01*
X011475Y005014D02*
X010955Y005014D01*
X011475Y003904D02*
X001941Y003904D01*
X002155Y003746D02*
X011475Y003746D01*
X011475Y003587D02*
X002227Y003587D01*
X002235Y003429D02*
X009247Y003429D01*
X009214Y003415D02*
X009085Y003286D01*
X009015Y003116D01*
X009015Y002333D01*
X009085Y002164D01*
X009214Y002035D01*
X009383Y001965D01*
X009566Y001965D01*
X009736Y002035D01*
X009865Y002164D01*
X009935Y002333D01*
X009935Y003116D01*
X009865Y003286D01*
X009736Y003415D01*
X009566Y003485D01*
X009383Y003485D01*
X009214Y003415D01*
X009079Y003270D02*
X007657Y003270D01*
X007663Y003266D02*
X007602Y003311D01*
X007534Y003345D01*
X007462Y003368D01*
X007388Y003380D01*
X007370Y003380D01*
X007370Y002620D01*
X007330Y002620D01*
X007330Y003380D01*
X007312Y003380D01*
X007238Y003368D01*
X007166Y003345D01*
X007098Y003311D01*
X007037Y003266D01*
X006984Y003213D01*
X006939Y003152D01*
X006905Y003084D01*
X006882Y003012D01*
X006870Y002938D01*
X006870Y002620D01*
X007330Y002620D01*
X007330Y002580D01*
X006870Y002580D01*
X006870Y002262D01*
X006882Y002188D01*
X006905Y002116D01*
X006939Y002048D01*
X006984Y001987D01*
X007037Y001934D01*
X007098Y001889D01*
X007166Y001855D01*
X007238Y001832D01*
X007312Y001820D01*
X007330Y001820D01*
X007330Y002580D01*
X007370Y002580D01*
X007370Y002620D01*
X007830Y002620D01*
X007830Y002938D01*
X007818Y003012D01*
X007795Y003084D01*
X007761Y003152D01*
X007716Y003213D01*
X007663Y003266D01*
X007781Y003112D02*
X009015Y003112D01*
X009015Y002953D02*
X007828Y002953D01*
X007830Y002795D02*
X009015Y002795D01*
X009015Y002636D02*
X007830Y002636D01*
X007830Y002580D02*
X007370Y002580D01*
X007370Y001820D01*
X007388Y001820D01*
X007462Y001832D01*
X007534Y001855D01*
X007602Y001889D01*
X007663Y001934D01*
X007716Y001987D01*
X007761Y002048D01*
X007795Y002116D01*
X007818Y002188D01*
X007830Y002262D01*
X007830Y002580D01*
X007830Y002478D02*
X009015Y002478D01*
X009021Y002319D02*
X007830Y002319D01*
X007809Y002161D02*
X009089Y002161D01*
X009294Y002002D02*
X007727Y002002D01*
X007498Y001844D02*
X010406Y001844D01*
X010437Y001945D02*
X010455Y001945D01*
X010455Y002705D01*
X009995Y002705D01*
X009995Y002387D01*
X010007Y002313D01*
X010030Y002241D01*
X010064Y002173D01*
X010109Y002112D01*
X010162Y002059D01*
X010223Y002014D01*
X010291Y001980D01*
X010363Y001957D01*
X010437Y001945D01*
X010455Y002002D02*
X010495Y002002D01*
X010495Y002161D02*
X010455Y002161D01*
X010455Y002319D02*
X010495Y002319D01*
X010495Y002478D02*
X010455Y002478D01*
X010455Y002636D02*
X010495Y002636D01*
X010495Y002745D02*
X010955Y002745D01*
X010955Y003063D01*
X010943Y003137D01*
X010920Y003209D01*
X010886Y003277D01*
X010841Y003338D01*
X010788Y003391D01*
X010727Y003436D01*
X010659Y003470D01*
X010587Y003493D01*
X010513Y003505D01*
X010495Y003505D01*
X010495Y002745D01*
X010495Y002795D02*
X010455Y002795D01*
X010455Y002953D02*
X010495Y002953D01*
X010495Y003112D02*
X010455Y003112D01*
X010455Y003270D02*
X010495Y003270D01*
X010495Y003429D02*
X010455Y003429D01*
X010214Y003429D02*
X009703Y003429D01*
X009871Y003270D02*
X010061Y003270D01*
X010003Y003112D02*
X009935Y003112D01*
X009935Y002953D02*
X009995Y002953D01*
X009995Y002795D02*
X009935Y002795D01*
X009935Y002636D02*
X009995Y002636D01*
X009995Y002478D02*
X009935Y002478D01*
X009929Y002319D02*
X010006Y002319D01*
X010074Y002161D02*
X009861Y002161D01*
X009656Y002002D02*
X010248Y002002D01*
X010287Y001685D02*
X002038Y001685D01*
X002130Y001527D02*
X010195Y001527D01*
X010153Y001368D02*
X002172Y001368D01*
X002205Y001210D02*
X010120Y001210D01*
X010876Y002161D02*
X010913Y002161D01*
X010944Y002319D02*
X011475Y002319D01*
X011475Y002478D02*
X010955Y002478D01*
X010955Y002636D02*
X011475Y002636D01*
X011475Y002795D02*
X010955Y002795D01*
X010955Y002953D02*
X011475Y002953D01*
X011475Y003112D02*
X010947Y003112D01*
X010889Y003270D02*
X011475Y003270D01*
X011475Y003429D02*
X010736Y003429D01*
X007745Y006123D02*
X007705Y006123D01*
X007705Y006282D02*
X007745Y006282D01*
X007745Y006440D02*
X007705Y006440D01*
X007705Y006599D02*
X007745Y006599D01*
X007745Y006757D02*
X007705Y006757D01*
X007705Y006916D02*
X007745Y006916D01*
X007745Y007074D02*
X007705Y007074D01*
X007705Y007233D02*
X007745Y007233D01*
X007745Y007391D02*
X007705Y007391D01*
X007412Y007391D02*
X007359Y007338D01*
X007314Y007277D01*
X007280Y007209D01*
X007247Y007074D02*
X007185Y007074D01*
X007185Y006916D02*
X007245Y006916D01*
X007245Y006757D02*
X007185Y006757D01*
X007185Y006599D02*
X007245Y006599D01*
X007245Y006440D02*
X007185Y006440D01*
X007163Y006282D02*
X007267Y006282D01*
X007351Y006123D02*
X007074Y006123D01*
X006376Y006123D02*
X005224Y006123D01*
X005308Y006282D02*
X006287Y006282D01*
X006265Y006440D02*
X005330Y006440D01*
X005330Y006599D02*
X006265Y006599D01*
X006265Y006757D02*
X005330Y006757D01*
X005330Y006745D02*
X005330Y007063D01*
X005318Y007137D01*
X005295Y007209D01*
X005261Y007277D01*
X005216Y007338D01*
X005163Y007391D01*
X006440Y007391D01*
X006313Y007233D02*
X005283Y007233D01*
X005328Y007074D02*
X006265Y007074D01*
X006265Y006916D02*
X005330Y006916D01*
X005330Y006745D02*
X004870Y006745D01*
X004870Y007505D01*
X004888Y007505D01*
X004962Y007493D01*
X005034Y007470D01*
X005102Y007436D01*
X005163Y007391D01*
X004870Y007391D02*
X004830Y007391D01*
X004830Y007233D02*
X004870Y007233D01*
X004870Y007074D02*
X004830Y007074D01*
X004830Y006916D02*
X004870Y006916D01*
X004870Y006757D02*
X004830Y006757D01*
X004830Y006599D02*
X004870Y006599D01*
X004870Y006440D02*
X004830Y006440D01*
X004830Y006282D02*
X004870Y006282D01*
X004870Y006123D02*
X004830Y006123D01*
X004476Y006123D02*
X004199Y006123D01*
X004288Y006282D02*
X004392Y006282D01*
X004370Y006440D02*
X004310Y006440D01*
X004310Y006599D02*
X004370Y006599D01*
X004370Y006757D02*
X004310Y006757D01*
X004310Y006916D02*
X004370Y006916D01*
X004372Y007074D02*
X004310Y007074D01*
X004405Y007209D02*
X004439Y007277D01*
X004484Y007338D01*
X004537Y007391D01*
X003565Y007391D02*
X003100Y007391D01*
X003100Y007233D02*
X003438Y007233D01*
X003390Y007074D02*
X003100Y007074D01*
X003100Y006916D02*
X003390Y006916D01*
X003390Y006757D02*
X003100Y006757D01*
X003100Y006599D02*
X003390Y006599D01*
X003390Y006440D02*
X003100Y006440D01*
X003100Y006282D02*
X003412Y006282D01*
X003501Y006123D02*
X003100Y006123D01*
X003100Y007550D02*
X009039Y007550D01*
X008225Y010086D02*
X011475Y010086D01*
X011475Y010244D02*
X008225Y010244D01*
X008225Y010403D02*
X011475Y010403D01*
X011475Y010561D02*
X010790Y010561D01*
X010909Y010720D02*
X011475Y010720D01*
X011475Y010878D02*
X010954Y010878D01*
X010955Y011037D02*
X011475Y011037D01*
X011475Y011195D02*
X010955Y011195D01*
X010955Y011354D02*
X011475Y011354D01*
X011475Y011512D02*
X011434Y011512D01*
X011016Y011512D02*
X010955Y011512D01*
X010495Y011195D02*
X010455Y011195D01*
X010455Y011037D02*
X010495Y011037D01*
X010495Y010878D02*
X010455Y010878D01*
X010455Y010720D02*
X010495Y010720D01*
X010495Y010561D02*
X010455Y010561D01*
X010160Y010561D02*
X009762Y010561D01*
X009888Y010720D02*
X010041Y010720D01*
X009996Y010878D02*
X009935Y010878D01*
X009935Y011037D02*
X009995Y011037D01*
X009995Y011195D02*
X009935Y011195D01*
X009935Y011354D02*
X009995Y011354D01*
X009995Y011512D02*
X009935Y011512D01*
X009913Y011671D02*
X010018Y011671D01*
X010103Y011829D02*
X009822Y011829D01*
X009128Y011829D02*
X008225Y011829D01*
X008225Y011671D02*
X009037Y011671D01*
X009015Y011512D02*
X008225Y011512D01*
X008225Y011354D02*
X009015Y011354D01*
X009015Y011195D02*
X008225Y011195D01*
X008225Y011037D02*
X009015Y011037D01*
X009015Y010878D02*
X008225Y010878D01*
X008225Y010720D02*
X009062Y010720D01*
X009188Y010561D02*
X008225Y010561D01*
X006441Y003360D02*
X006258Y003360D01*
X006089Y003290D01*
X005960Y003161D01*
X005890Y002991D01*
X005890Y002208D01*
X005960Y002039D01*
X006089Y001910D01*
X006258Y001840D01*
X006441Y001840D01*
X006611Y001910D01*
X006740Y002039D01*
X006810Y002208D01*
X006810Y002991D01*
X006740Y003161D01*
X006611Y003290D01*
X006441Y003360D01*
X006631Y003270D02*
X007043Y003270D01*
X006919Y003112D02*
X006760Y003112D01*
X006810Y002953D02*
X006872Y002953D01*
X006870Y002795D02*
X006810Y002795D01*
X006810Y002636D02*
X006870Y002636D01*
X006870Y002478D02*
X006810Y002478D01*
X006810Y002319D02*
X006870Y002319D01*
X006891Y002161D02*
X006790Y002161D01*
X006703Y002002D02*
X006973Y002002D01*
X007202Y001844D02*
X006450Y001844D01*
X006250Y001844D02*
X004623Y001844D01*
X004587Y001832D02*
X004659Y001855D01*
X004727Y001889D01*
X004788Y001934D01*
X004841Y001987D01*
X004886Y002048D01*
X004920Y002116D01*
X004943Y002188D01*
X004955Y002262D01*
X004955Y002580D01*
X004495Y002580D01*
X004495Y002620D01*
X004455Y002620D01*
X004455Y003380D01*
X004437Y003380D01*
X004363Y003368D01*
X004291Y003345D01*
X004223Y003311D01*
X004162Y003266D01*
X004109Y003213D01*
X004064Y003152D01*
X004030Y003084D01*
X004007Y003012D01*
X003995Y002938D01*
X003995Y002620D01*
X004455Y002620D01*
X004455Y002580D01*
X003995Y002580D01*
X003995Y002262D01*
X004007Y002188D01*
X004030Y002116D01*
X004064Y002048D01*
X004109Y001987D01*
X004162Y001934D01*
X004223Y001889D01*
X004291Y001855D01*
X004363Y001832D01*
X004437Y001820D01*
X004455Y001820D01*
X004455Y002580D01*
X004495Y002580D01*
X004495Y001820D01*
X004513Y001820D01*
X004587Y001832D01*
X004495Y001844D02*
X004455Y001844D01*
X004327Y001844D02*
X003575Y001844D01*
X003375Y001844D02*
X001919Y001844D01*
X001748Y002002D02*
X003122Y002002D01*
X003828Y002002D02*
X004098Y002002D01*
X004016Y002161D02*
X003915Y002161D01*
X003935Y002319D02*
X003995Y002319D01*
X003995Y002478D02*
X003935Y002478D01*
X003935Y002636D02*
X003995Y002636D01*
X003995Y002795D02*
X003935Y002795D01*
X003935Y002953D02*
X003997Y002953D01*
X004044Y003112D02*
X003885Y003112D01*
X003756Y003270D02*
X004168Y003270D01*
X004455Y003270D02*
X004495Y003270D01*
X004495Y003380D02*
X004495Y002620D01*
X004955Y002620D01*
X004955Y002938D01*
X004943Y003012D01*
X004920Y003084D01*
X004886Y003152D01*
X004841Y003213D01*
X004788Y003266D01*
X004727Y003311D01*
X004659Y003345D01*
X004587Y003368D01*
X004513Y003380D01*
X004495Y003380D01*
X004495Y003112D02*
X004455Y003112D01*
X004455Y002953D02*
X004495Y002953D01*
X004495Y002795D02*
X004455Y002795D01*
X004455Y002636D02*
X004495Y002636D01*
X004495Y002478D02*
X004455Y002478D01*
X004455Y002319D02*
X004495Y002319D01*
X004495Y002161D02*
X004455Y002161D01*
X004455Y002002D02*
X004495Y002002D01*
X004852Y002002D02*
X005997Y002002D01*
X005910Y002161D02*
X004934Y002161D01*
X004955Y002319D02*
X005890Y002319D01*
X005890Y002478D02*
X004955Y002478D01*
X004955Y002636D02*
X005890Y002636D01*
X005890Y002795D02*
X004955Y002795D01*
X004953Y002953D02*
X005890Y002953D01*
X005940Y003112D02*
X004906Y003112D01*
X004782Y003270D02*
X006069Y003270D01*
X007330Y003270D02*
X007370Y003270D01*
X007370Y003112D02*
X007330Y003112D01*
X007330Y002953D02*
X007370Y002953D01*
X007370Y002795D02*
X007330Y002795D01*
X007330Y002636D02*
X007370Y002636D01*
X007370Y002478D02*
X007330Y002478D01*
X007330Y002319D02*
X007370Y002319D01*
X007370Y002161D02*
X007330Y002161D01*
X007330Y002002D02*
X007370Y002002D01*
X007370Y001844D02*
X007330Y001844D01*
X003194Y003270D02*
X002188Y003270D01*
X002062Y003112D02*
X003065Y003112D01*
X001495Y004063D02*
X001455Y004063D01*
X001455Y004221D02*
X001495Y004221D01*
X001495Y004380D02*
X001455Y004380D01*
X001455Y004538D02*
X001495Y004538D01*
X001495Y004697D02*
X001455Y004697D01*
X001455Y004855D02*
X001495Y004855D01*
D17*
X004850Y006725D02*
X005725Y006725D01*
X005725Y007350D01*
X005600Y007350D01*
X005600Y008880D01*
X005725Y008880D01*
D18*
X007475Y009350D03*
M02*
