G75*
%MOIN*%
%OFA0B0*%
%FSLAX24Y24*%
%IPPOS*%
%LPD*%
%AMOC8*
5,1,8,0,0,1.08239X$1,22.5*
%
%ADD10C,0.0000*%
D10*
X000100Y000318D02*
X000100Y008439D01*
X014345Y008439D01*
X014345Y000318D01*
X000100Y000318D01*
X010600Y001193D02*
X010602Y001243D01*
X010608Y001292D01*
X010618Y001341D01*
X010631Y001388D01*
X010649Y001435D01*
X010670Y001480D01*
X010694Y001523D01*
X010722Y001564D01*
X010753Y001603D01*
X010787Y001639D01*
X010824Y001673D01*
X010864Y001703D01*
X010905Y001730D01*
X010949Y001754D01*
X010994Y001774D01*
X011041Y001790D01*
X011089Y001803D01*
X011138Y001812D01*
X011188Y001817D01*
X011237Y001818D01*
X011287Y001815D01*
X011336Y001808D01*
X011385Y001797D01*
X011432Y001783D01*
X011478Y001764D01*
X011523Y001742D01*
X011566Y001717D01*
X011606Y001688D01*
X011644Y001656D01*
X011680Y001622D01*
X011713Y001584D01*
X011742Y001544D01*
X011768Y001502D01*
X011791Y001458D01*
X011810Y001412D01*
X011826Y001365D01*
X011838Y001316D01*
X011846Y001267D01*
X011850Y001218D01*
X011850Y001168D01*
X011846Y001119D01*
X011838Y001070D01*
X011826Y001021D01*
X011810Y000974D01*
X011791Y000928D01*
X011768Y000884D01*
X011742Y000842D01*
X011713Y000802D01*
X011680Y000764D01*
X011644Y000730D01*
X011606Y000698D01*
X011566Y000669D01*
X011523Y000644D01*
X011478Y000622D01*
X011432Y000603D01*
X011385Y000589D01*
X011336Y000578D01*
X011287Y000571D01*
X011237Y000568D01*
X011188Y000569D01*
X011138Y000574D01*
X011089Y000583D01*
X011041Y000596D01*
X010994Y000612D01*
X010949Y000632D01*
X010905Y000656D01*
X010864Y000683D01*
X010824Y000713D01*
X010787Y000747D01*
X010753Y000783D01*
X010722Y000822D01*
X010694Y000863D01*
X010670Y000906D01*
X010649Y000951D01*
X010631Y000998D01*
X010618Y001045D01*
X010608Y001094D01*
X010602Y001143D01*
X010600Y001193D01*
X000850Y007318D02*
X000852Y007368D01*
X000858Y007417D01*
X000868Y007466D01*
X000881Y007513D01*
X000899Y007560D01*
X000920Y007605D01*
X000944Y007648D01*
X000972Y007689D01*
X001003Y007728D01*
X001037Y007764D01*
X001074Y007798D01*
X001114Y007828D01*
X001155Y007855D01*
X001199Y007879D01*
X001244Y007899D01*
X001291Y007915D01*
X001339Y007928D01*
X001388Y007937D01*
X001438Y007942D01*
X001487Y007943D01*
X001537Y007940D01*
X001586Y007933D01*
X001635Y007922D01*
X001682Y007908D01*
X001728Y007889D01*
X001773Y007867D01*
X001816Y007842D01*
X001856Y007813D01*
X001894Y007781D01*
X001930Y007747D01*
X001963Y007709D01*
X001992Y007669D01*
X002018Y007627D01*
X002041Y007583D01*
X002060Y007537D01*
X002076Y007490D01*
X002088Y007441D01*
X002096Y007392D01*
X002100Y007343D01*
X002100Y007293D01*
X002096Y007244D01*
X002088Y007195D01*
X002076Y007146D01*
X002060Y007099D01*
X002041Y007053D01*
X002018Y007009D01*
X001992Y006967D01*
X001963Y006927D01*
X001930Y006889D01*
X001894Y006855D01*
X001856Y006823D01*
X001816Y006794D01*
X001773Y006769D01*
X001728Y006747D01*
X001682Y006728D01*
X001635Y006714D01*
X001586Y006703D01*
X001537Y006696D01*
X001487Y006693D01*
X001438Y006694D01*
X001388Y006699D01*
X001339Y006708D01*
X001291Y006721D01*
X001244Y006737D01*
X001199Y006757D01*
X001155Y006781D01*
X001114Y006808D01*
X001074Y006838D01*
X001037Y006872D01*
X001003Y006908D01*
X000972Y006947D01*
X000944Y006988D01*
X000920Y007031D01*
X000899Y007076D01*
X000881Y007123D01*
X000868Y007170D01*
X000858Y007219D01*
X000852Y007268D01*
X000850Y007318D01*
M02*
